<?xml version="1.0" encoding="UTF-8"?>
<!DOCTYPE svg PUBLIC "-//W3C//DTD SVG 1.1//EN" "http://www.w3.org/Graphics/SVG/1.1/DTD/svg11.dtd">
<!-- Creator: CorelDRAW 2020 (64 Bit) -->
<svg xmlns="http://www.w3.org/2000/svg" xml:space="preserve" width="7676.31mm" height="1550.15mm" version="1.1" style="shape-rendering:geometricPrecision; text-rendering:geometricPrecision; image-rendering:optimizeQuality; fill-rule:evenodd; clip-rule:evenodd"
viewBox="0 0 730151.5 147445.88"
 xmlns:xlink="http://www.w3.org/1999/xlink"
 xmlns:xodm="http://www.corel.com/coreldraw/odm/2003">
 <defs>
  <style type="text/css">
   <![CDATA[
    .fil0 {fill:#FEFEFE;fill-rule:nonzero}
   ]]>
  </style>
 </defs>
 <g id="Camada_x0020_1">
  <metadata id="CorelCorpID_0Corel-Layer"/>
  <g id="_1796255311440">
   <polygon class="fil0" points="488383.6,81905.87 504604.95,56409.54 535798.02,105398.61 549901.47,105398.61 509900.19,44425.22 499334.72,44425.22 481449.71,71687.34 "/>
   <polygon class="fil0" points="459333.44,105398.61 473436.89,105398.61 486969.93,84127.73 480013.47,73876.28 "/>
   <polygon class="fil0" points="189815.52,0 157212.63,46246.8 124609.64,0 "/>
   <polygon class="fil0" points="140824.97,67989.3 157046.33,93485.63 188239.4,44496.56 202342.85,44496.56 162341.57,105469.94 151776.1,105469.94 133891.08,78207.83 "/>
   <polygon class="fil0" points="111774.81,44496.56 125878.27,44496.56 139411.31,65767.43 132454.85,76018.88 "/>
   <polygon class="fil0" points="280519.86,44496.56 361099.84,44496.56 361099.84,51266.44 327572.71,51266.44 327572.71,105469.94 314046.38,105469.94 314046.38,51266.44 280519.86,51266.44 "/>
   <polygon class="fil0" points="376343.18,44496.56 389869.22,44496.56 389869.22,98685.13 443974.25,98685.13 443974.25,105469.94 376343.18,105469.94 "/>
   <path class="fil0" d="M565197.55 44496.56l47053.47 0c7854.9,0 14329.35,1536.54 19423.68,4640.08 4692.51,2844.72 7051.88,6647.93 7051.88,11409.64 0,3803.21 -2158.46,6997.92 -6474.46,9614.59 -2334.06,1429.82 -5295.23,2494.73 -8808.51,3209.95 4692.81,958.19 8431.7,2266.68 11166.97,3924.85 4717.81,2859.95 7051.88,6419.89 7051.88,10694.73 0,5233.04 -2935.87,9629.83 -8808.52,13189.45 -4717.51,2859.96 -11769.39,4290.09 -21180.32,4290.09l-46476.05 0 0 -60973.39zm13551.34 6769.88l0 18894.43 31745.48 0c3914.49,0 7252.48,-821.62 10012.75,-2495.03 3137.08,-1901.46 4693.11,-4396.49 4693.11,-7484.79 0,-2616.67 -1556.04,-4868.11 -4693.11,-6769.57 -2358.46,-1430.13 -5294.93,-2145.04 -8833.52,-2145.04l-32924.71 0zm0 25679.24l0 21739.45 29988.84 0c5872.34,0 10389.56,-943.26 13526.03,-2845.02 3538.59,-2145.04 5295.24,-4761.71 5295.24,-7849.71 0,-3331.58 -1581.04,-5933.02 -4717.82,-7834.78 -3513.29,-2145.04 -8231.1,-3209.94 -14103.45,-3209.94l-29988.84 0z"/>
   <polygon class="fil0" points="217586.19,44496.56 263139.7,44496.56 263139.7,51266.13 227124.56,51266.13 227124.56,70160.56 260649.25,70160.56 260649.25,76945.38 227124.56,76945.38 227124.56,98684.82 265206.7,98684.82 265206.7,105469.64 217586.19,105469.64 "/>
   <polygon class="fil0" points="43970.96,914.62 -0,914.62 97299.05,147445.88 141270.01,147445.88 "/>
   <path class="fil0" d="M209801.8 128361.18l0 -1174.35 4322.96 0 0 3709.62c-663.56,517.36 -1348.28,908.81 -2054.46,1169.77 -706.18,260.96 -1431.65,391.46 -2173.61,391.46 -1003.28,0 -1914.15,-209.75 -2734.51,-631.38 -817.86,-419.5 -1438.49,-1029.85 -1854.42,-1824.63 -418.74,-796.92 -627.79,-1687.14 -627.79,-2668.2 0,-974.05 206.88,-1882.86 622.81,-2728.56 416.24,-843.57 1012.92,-1470.37 1792.83,-1878.28 779.92,-410.05 1678.98,-615.22 2696.56,-615.22 737.28,0 1405.21,116.45 2002.19,351.81 596.99,235.36 1065.18,561.56 1403.03,978.93 340.03,419.19 596.67,967.04 772.75,1640.49l-1219.8 326.21c-154.61,-508.21 -345,-908.81 -570.86,-1202.4 -228.34,-291.45 -551.57,-524.36 -974.96,-699.06 -420.91,-175 -889.11,-263.41 -1405.21,-263.41 -615.96,0 -1148.56,93.29 -1600.27,277.43 -449.53,183.83 -810.71,426.21 -1089.13,729.25 -275.63,300.6 -489.66,631.38 -641.79,990.21 -259.45,622.23 -390.11,1293.55 -390.11,2018.21 0,894.79 156.79,1642.62 468.51,2246.27 313.89,601.19 770.26,1048.74 1367.25,1339.88 599.17,291.15 1234.11,438.1 1907.01,438.1 584.85,0 1155.71,-111.89 1711.94,-333.23 556.54,-223.77 977.46,-459.13 1265.21,-713.09l0 -1875.84 -2996.14 0zm10310.26 3928.82l0 -10010.61 7376.02 0 0 1174.35 -6020.58 0 0 3075.8 5635.45 0 0 1174.65 -5635.45 0 0 3411.45 6263.24 0 0 1174.35 -7618.67 0zm13479.97 0l0 -10010.61 4527.34 0c910.88,0 1602.75,90.85 2075.92,270.11 473.18,179.56 851.16,496.32 1134.25,950.88 283.1,454.25 423.4,957.59 423.4,1507.56 0,710.64 -235.49,1309.71 -704,1796.58 -468.5,487.18 -1191.18,794.79 -2170.81,927.4 359,167.99 629.96,335.66 815.38,498.77 394.78,354.26 768.09,799.36 1117.76,1332.87l1766.69 2726.43 -1688.3 0 -1350.77 -2083.16c-392.28,-603.63 -718,-1062.77 -972.47,-1381.96 -256.66,-319.2 -484.99,-540.52 -687.2,-668.88 -199.73,-125.6 -406.6,-214.32 -615.66,-265.54 -152.44,-30.18 -401.93,-46.65 -751.6,-46.65l-1564.49 0 0 4446.18 -1355.43 0zm1355.43 -5592.48l2900.95 0c618.14,0 1098.46,-63.11 1445.65,-189.02 347.18,-123.47 611.29,-323.77 789.55,-601.2 180.74,-274.68 270.96,-573.15 270.96,-896.92 0,-473.15 -173.59,-864.6 -522.95,-1169.77 -349.67,-305.47 -901.24,-456.69 -1655.02,-456.69l-3229.15 0 0 3313.6zm12911.62 5592.48l0 -10010.61 7376.02 0 0 1174.35 -6020.58 0 0 3075.8 5635.45 0 0 1174.65 -5635.45 0 0 3411.45 6263.24 0 0 1174.35 -7618.67 0zm13437.04 0l0 -10010.61 1388.72 0 5359.82 7857.34 0 -7857.34 1298.19 0 0 10010.61 -1388.72 0 -5359.51 -7857.63 0 7857.63 -1298.51 0zm21557.52 -3511.77l1355.43 335.66c-282.78,1088.08 -791.74,1915.48 -1526.54,2486.49 -734.8,570.71 -1633.55,857.29 -2696.55,857.29 -1098.47,0 -1992.55,-218.9 -2682.25,-659.43 -689.38,-438.09 -1212.64,-1074.05 -1571.64,-1906.03 -359,-834.42 -539.74,-1726.76 -539.74,-2682.22 0,-1041.42 202.21,-1950.23 608.81,-2726.43 406.6,-775.88 984.29,-1365.5 1733.41,-1768.53 749.11,-403.03 1574.13,-603.63 2472.88,-603.63 1022.56,0 1880.86,253.95 2575.23,764.3 696.84,510.34 1181.83,1225.87 1455.29,2148.7l-1326.81 307.61c-235.49,-727.11 -580.19,-1258.49 -1029.71,-1589.27 -449.22,-333.23 -1015.41,-498.77 -1697.64,-498.77 -782.4,0 -1438.8,184.15 -1964.24,552.12 -525.44,368.28 -896.26,864.6 -1108.12,1484.39 -214.02,622.24 -321.04,1263.06 -321.04,1922.5 0,850.58 126.3,1593.85 378.28,2227.66 251.99,636.26 644.28,1109.41 1176.87,1424.03 532.59,314.32 1108.11,470.72 1728.74,470.72 756.27,0 1393.39,-214.63 1916.65,-640.83 522.95,-428.94 877.29,-1062.77 1062.7,-1906.33zm7219.23 3511.77l0 -10010.61 1355.43 0 0 10010.61 -1355.43 0zm6579.62 0l3918.84 -10010.61 1486.1 0 4158.7 10010.61 -1538.36 0 -1181.83 -3034.04 -4301.49 0 -1108.12 3034.04 -1433.83 0zm2939.22 -4110.52l3481.13 0 -1065.5 -2775.51c-321.05,-843.26 -563.39,-1540.19 -732.31,-2090.17 -140.31,652.42 -328.2,1293.25 -563.39,1927.07l-1119.93 2938.61zm11632.39 4110.52l0 -10010.61 2025.84 0 2415.95 7086.02c223.36,659.73 385.14,1153.61 487.49,1482.26 116.35,-363.71 299.58,-899.66 546.91,-1605.73l2458.57 -6962.55 1809.63 0 0 10010.61 -1298.51 0 0 -8375 -2981.83 8375 -1217.3 0 -2948.55 -8528.65 0 8528.65 -1298.19 0zm15905.27 0l0 -10010.61 7376.02 0 0 1174.35 -6020.58 0 0 3075.8 5635.44 0 0 1174.65 -5635.44 0 0 3411.45 6263.24 0 0 1174.35 -7618.67 0zm13437.04 0l0 -10010.61 1388.71 0 5359.83 7857.34 0 -7857.34 1298.19 0 0 10010.61 -1388.72 0 -5359.51 -7857.63 0 7857.63 -1298.51 0zm16878.05 0l0 -8836.26 -3366.97 0 0 -1174.35 8089.36 0 0 1174.35 -3366.97 0 0 8836.26 -1355.42 0zm9411.49 -4872.69c0,-1659.09 456.69,-2959.34 1367.26,-3898.33 910.88,-938.99 2085.57,-1407.57 3526.56,-1407.57 943.86,0 1792.83,221.33 2551.28,661.87 756.26,440.53 1333.97,1055.44 1731.23,1845.66 396.95,787.48 596.67,1682.26 596.67,2681.91 0,1013.69 -209.36,1922.5 -627.78,2721.85 -418.42,801.5 -1010.43,1407.58 -1776.03,1817.62 -768.08,412.49 -1595.6,617.36 -2482.52,617.36 -963.15,0 -1821.45,-228.35 -2579.9,-682.6 -756.27,-454.56 -1331.79,-1074.35 -1721.59,-1861.82 -390.11,-785.34 -585.17,-1617.32 -585.17,-2495.95zm1398.37 23.47c0,1204.83 330.38,2152.97 991.46,2845.32 661.07,692.05 1491.06,1039.29 2489.67,1039.29 1017.59,0 1852.25,-349.68 2510.83,-1048.75 656.41,-699.06 984.61,-1691.7 984.61,-2977.94 0,-813.39 -140.3,-1524.03 -420.9,-2130.11 -280.61,-605.77 -691.87,-1076.48 -1231.62,-1409.7 -542.24,-333.23 -1148.55,-500.9 -1821.45,-500.9 -955.99,0 -1778.83,321.63 -2468.21,964.6 -689.7,643.27 -1034.38,1715.19 -1034.38,3218.18zm21947.62 4849.21l0 -10010.61 1355.43 0 0 8836.26 5021.97 0 0 1174.35 -6377.41 0zm10835.69 0l3918.84 -10010.61 1486.1 0 4158.69 10010.61 -1538.35 0 -1181.84 -3034.04 -4301.49 0 -1108.11 3034.04 -1433.83 0zm2939.21 -4110.52l3481.14 0 -1065.5 -2775.51c-321.05,-843.26 -563.39,-1540.19 -732.31,-2090.17 -140.31,652.42 -328.21,1293.25 -563.39,1927.07l-1119.94 2938.61zm11603.78 4110.52l0 -10010.61 3832.98 0c779.92,0 1405.21,100 1878.69,302.73 470.68,202.74 839.33,514.93 1105.63,936.86 268.47,419.5 401.93,859.73 401.93,1321.3 0,426.2 -119.14,829.54 -354.33,1206.96 -235.5,377.43 -592.32,682.91 -1070.17,915.82 618.15,177.13 1093.8,480.16 1424.5,908.81 332.87,426.51 499.31,931.98 499.31,1514.57 0,470.72 -102.36,906.68 -304.57,1309.71 -201.9,403.03 -451.7,713.09 -748.8,931.98 -297.4,216.76 -670.71,382.31 -1117.75,494.19 -449.22,111.89 -998.61,167.67 -1650.04,167.67l-3897.37 0zm1355.43 -5802.22l2208.76 0c599.48,0 1029.71,-39.64 1288.86,-116.46 345,-100.3 604.14,-267.97 777.73,-501.2 173.59,-232.91 261.32,-524.37 261.32,-876.18 0,-333.23 -80.56,-626.81 -244.82,-878.32 -161.78,-254.26 -394.79,-428.95 -696.55,-522.23 -302.06,-92.99 -820.35,-139.63 -1552.97,-139.63l-2042.32 0 0 3034.04zm0 4627.87l2544.12 0c437.71,0 744.45,-16.46 922.71,-49.08 309.23,-53.66 570.54,-144.51 779.91,-272.55 209.37,-128.35 380.47,-314.62 516.11,-559.43 135.32,-244.5 201.9,-526.5 201.9,-845.7 0,-375.3 -97.37,-699.06 -294.91,-976.49 -194.74,-277.12 -466.02,-470.72 -813.2,-582.6 -344.7,-111.89 -844,-167.68 -1493.25,-167.68l-2363.37 0 0 3453.53zm11767.72 -3698.34c0,-1659.09 456.68,-2959.34 1367.25,-3898.33 910.88,-938.99 2085.57,-1407.57 3526.56,-1407.57 943.86,0 1792.83,221.33 2551.28,661.87 756.26,440.53 1333.97,1055.44 1731.23,1845.66 396.95,787.48 596.67,1682.26 596.67,2681.91 0,1013.69 -209.36,1922.5 -627.78,2721.85 -418.42,801.5 -1010.43,1407.58 -1776.03,1817.62 -768.08,412.49 -1595.6,617.36 -2482.52,617.36 -963.15,0 -1821.45,-228.35 -2579.9,-682.6 -756.27,-454.56 -1331.79,-1074.35 -1721.59,-1861.82 -390.11,-785.34 -585.16,-1617.32 -585.16,-2495.95zm1398.36 23.47c0,1204.83 330.38,2152.97 991.46,2845.32 661.07,692.05 1491.07,1039.29 2489.67,1039.29 1017.59,0 1852.25,-349.68 2510.83,-1048.75 656.41,-699.06 984.61,-1691.7 984.61,-2977.94 0,-813.39 -140.3,-1524.03 -420.9,-2130.11 -280.61,-605.77 -691.87,-1076.48 -1231.62,-1409.7 -542.24,-333.23 -1148.55,-500.9 -1821.45,-500.9 -955.99,0 -1778.83,321.63 -2468.21,964.6 -689.7,643.27 -1034.38,1715.19 -1034.38,3218.18zm14105.27 4849.21l0 -10010.61 4527.34 0c910.87,0 1602.75,90.85 2075.92,270.11 473.17,179.56 851.15,496.32 1134.25,950.88 283.1,454.25 423.4,957.59 423.4,1507.56 0,710.64 -235.49,1309.71 -704,1796.58 -468.5,487.18 -1191.18,794.79 -2170.81,927.4 359,167.99 629.96,335.66 815.38,498.77 394.78,354.26 768.09,799.36 1117.76,1332.87l1766.69 2726.43 -1688.3 0 -1350.77 -2083.16c-392.28,-603.63 -718,-1062.77 -972.47,-1381.96 -256.66,-319.2 -484.99,-540.52 -687.2,-668.88 -199.73,-125.6 -406.6,-214.32 -615.66,-265.54 -152.44,-30.18 -401.93,-46.65 -751.6,-46.65l-1564.49 0 0 4446.18 -1355.43 0zm1355.43 -5592.48l2900.95 0c618.14,0 1098.46,-63.11 1445.64,-189.02 347.18,-123.47 611.3,-323.77 789.56,-601.2 180.74,-274.68 270.96,-573.15 270.96,-896.92 0,-473.15 -173.59,-864.6 -522.95,-1169.77 -349.67,-305.47 -901.24,-456.69 -1655.02,-456.69l-3229.15 0 0 3313.6zm11763.05 5592.48l3918.85 -10010.61 1486.09 0 4158.7 10010.61 -1538.36 0 -1181.83 -3034.04 -4301.49 0 -1108.12 3034.04 -1433.83 0zm2939.22 -4110.52l3481.13 0 -1065.5 -2775.51c-321.04,-843.26 -563.39,-1540.19 -732.31,-2090.17 -140.31,652.42 -328.2,1293.25 -563.39,1927.07l-1119.93 2938.61zm13199.36 4110.52l0 -8836.26 -3366.96 0 0 -1174.35 8089.36 0 0 1174.35 -3366.97 0 0 8836.26 -1355.43 0zm9668.16 -4872.69c0,-1659.09 456.69,-2959.34 1367.26,-3898.33 910.88,-938.99 2085.56,-1407.57 3526.55,-1407.57 943.86,0 1792.83,221.33 2551.28,661.87 756.27,440.53 1333.97,1055.44 1731.23,1845.66 396.95,787.48 596.68,1682.26 596.68,2681.91 0,1013.69 -209.37,1922.5 -627.79,2721.85 -418.41,801.5 -1010.42,1407.58 -1776.02,1817.62 -768.09,412.49 -1595.6,617.36 -2482.53,617.36 -963.14,0 -1821.45,-228.35 -2579.89,-682.6 -756.27,-454.56 -1331.8,-1074.35 -1721.6,-1861.82 -390.11,-785.34 -585.16,-1617.32 -585.16,-2495.95zm1398.36 23.47c0,1204.83 330.38,2152.97 991.46,2845.32 661.08,692.05 1491.07,1039.29 2489.68,1039.29 1017.59,0 1852.25,-349.68 2510.83,-1048.75 656.41,-699.06 984.61,-1691.7 984.61,-2977.94 0,-813.39 -140.31,-1524.03 -420.91,-2130.11 -280.61,-605.77 -691.87,-1076.48 -1231.62,-1409.7 -542.23,-333.23 -1148.55,-500.9 -1821.44,-500.9 -956,0 -1778.83,321.63 -2468.21,964.6 -689.7,643.27 -1034.39,1715.19 -1034.39,3218.18zm2453.91 -5776.62l913.06 -1915.48 1655.02 0 -1526.54 1915.48 -1041.54 0zm11651.38 10625.83l0 -10010.61 4527.33 0c910.88,0 1602.76,90.85 2075.93,270.11 473.17,179.56 851.15,496.32 1134.25,950.88 283.09,454.25 423.4,957.59 423.4,1507.56 0,710.64 -235.5,1309.71 -704.01,1796.58 -468.5,487.18 -1191.18,794.79 -2170.8,927.4 359,167.99 629.96,335.66 815.38,498.77 394.78,354.26 768.08,799.36 1117.75,1332.87l1766.7 2726.43 -1688.31 0 -1350.76 -2083.16c-392.29,-603.63 -718,-1062.77 -972.48,-1381.96 -256.66,-319.2 -484.99,-540.52 -687.2,-668.88 -199.72,-125.6 -406.6,-214.32 -615.66,-265.54 -152.44,-30.18 -401.93,-46.65 -751.6,-46.65l-1564.48 0 0 4446.18 -1355.43 0zm1355.43 -5592.48l2900.94 0c618.14,0 1098.47,-63.11 1445.65,-189.02 347.18,-123.47 611.29,-323.77 789.55,-601.2 180.74,-274.68 270.96,-573.15 270.96,-896.92 0,-473.15 -173.59,-864.6 -522.95,-1169.77 -349.67,-305.47 -901.24,-456.69 -1655.02,-456.69l-3229.14 0 0 3313.6zm13111.33 5592.48l0 -10010.61 1355.42 0 0 10010.61 -1355.42 0zm7285.8 -4872.69c0,-1659.09 456.69,-2959.34 1367.26,-3898.33 910.88,-938.99 2085.56,-1407.57 3526.55,-1407.57 943.86,0 1792.83,221.33 2551.28,661.87 756.27,440.53 1333.97,1055.44 1731.23,1845.66 396.95,787.48 596.68,1682.26 596.68,2681.91 0,1013.69 -209.37,1922.5 -627.79,2721.85 -418.41,801.5 -1010.42,1407.58 -1776.02,1817.62 -768.09,412.49 -1595.6,617.36 -2482.53,617.36 -963.14,0 -1821.45,-228.35 -2579.9,-682.6 -756.26,-454.56 -1331.79,-1074.35 -1721.59,-1861.82 -390.11,-785.34 -585.16,-1617.32 -585.16,-2495.95zm1398.36 23.47c0,1204.83 330.38,2152.97 991.46,2845.32 661.08,692.05 1491.07,1039.29 2489.68,1039.29 1017.59,0 1852.25,-349.68 2510.83,-1048.75 656.41,-699.06 984.61,-1691.7 984.61,-2977.94 0,-813.39 -140.31,-1524.03 -420.91,-2130.11 -280.61,-605.77 -691.87,-1076.48 -1231.62,-1409.7 -542.23,-333.23 -1148.55,-500.9 -1821.44,-500.9 -956,0 -1778.84,321.63 -2468.21,964.6 -689.7,643.27 -1034.39,1715.19 -1034.39,3218.18zm24915.14 4849.21l-3947.15 -10010.61 1464.62 0 2653.63 7275.04c211.86,582.3 392.29,1127.7 535.08,1638.05 157.11,-547.53 340.03,-1092.95 549.39,-1638.05l2753.49 -7275.04 1379.08 0 -3982.93 10010.61 -1405.21 0zm10598.01 0l0 -10010.61 7376.03 0 0 1174.35 -6020.59 0 0 3075.8 5635.45 0 0 1174.65 -5635.45 0 0 3411.45 6263.24 0 0 1174.35 -7618.67 0zm16048.06 0l0 -8836.26 -3366.96 0 0 -1174.35 8089.35 0 0 1174.35 -3366.96 0 0 8836.26 -1355.43 0zm10110.53 0l0 -10010.61 7376.02 0 0 1174.35 -6020.58 0 0 3075.8 5635.45 0 0 1174.65 -5635.45 0 0 3411.45 6263.24 0 0 1174.35 -7618.67 0zm13479.97 0l0 -10010.61 4527.34 0c910.88,0 1602.75,90.85 2075.92,270.11 473.18,179.56 851.16,496.32 1134.25,950.88 283.1,454.25 423.4,957.59 423.4,1507.56 0,710.64 -235.49,1309.71 -704,1796.58 -468.5,487.18 -1191.18,794.79 -2170.81,927.4 359,167.99 629.96,335.66 815.38,498.77 394.79,354.26 768.09,799.36 1117.76,1332.87l1766.69 2726.43 -1688.3 0 -1350.77 -2083.16c-392.28,-603.63 -718,-1062.77 -972.47,-1381.96 -256.66,-319.2 -484.99,-540.52 -687.2,-668.88 -199.73,-125.6 -406.6,-214.32 -615.66,-265.54 -152.44,-30.18 -401.93,-46.65 -751.6,-46.65l-1564.49 0 0 4446.18 -1355.43 0zm1355.43 -5592.48l2900.95 0c618.14,0 1098.46,-63.11 1445.65,-189.02 347.18,-123.47 611.29,-323.77 789.55,-601.2 180.74,-274.68 270.96,-573.15 270.96,-896.92 0,-473.15 -173.59,-864.6 -522.95,-1169.77 -349.67,-305.47 -901.24,-456.69 -1655.02,-456.69l-3229.15 0 0 3313.6zm13111.33 5592.48l0 -10010.61 1355.43 0 0 10010.61 -1355.43 0zm7685.25 0l0 -10010.61 1388.71 0 5359.82 7857.34 0 -7857.34 1298.19 0 0 10010.61 -1388.71 0 -5359.52 -7857.63 0 7857.63 -1298.5 0zm13161.41 0l3918.84 -10010.61 1486.1 0 4158.69 10010.61 -1538.35 0 -1181.84 -3034.04 -4301.48 0 -1108.12 3034.04 -1433.83 0zm2939.21 -4110.52l3481.14 0 -1065.5 -2775.51c-321.05,-843.26 -563.39,-1540.19 -732.31,-2090.17 -140.31,652.42 -328.2,1293.25 -563.39,1927.07l-1119.94 2938.61zm648.95 -6515.31l913.05 -1915.48 1655.02 0 -1526.53 1915.48 -1041.54 0zm11040.38 10625.83l0 -10010.61 4527.34 0c910.87,0 1602.75,90.85 2075.92,270.11 473.17,179.56 851.15,496.32 1134.25,950.88 283.1,454.25 423.4,957.59 423.4,1507.56 0,710.64 -235.49,1309.71 -704,1796.58 -468.5,487.18 -1191.18,794.79 -2170.81,927.4 359,167.99 629.96,335.66 815.38,498.77 394.78,354.26 768.09,799.36 1117.76,1332.87l1766.69 2726.43 -1688.3 0 -1350.77 -2083.16c-392.28,-603.63 -718,-1062.77 -972.47,-1381.96 -256.66,-319.2 -484.99,-540.52 -687.2,-668.88 -199.73,-125.6 -406.6,-214.32 -615.66,-265.54 -152.44,-30.18 -401.93,-46.65 -751.6,-46.65l-1564.49 0 0 4446.18 -1355.43 0zm1355.43 -5592.48l2900.95 0c618.14,0 1098.46,-63.11 1445.64,-189.02 347.18,-123.47 611.3,-323.77 789.56,-601.2 180.74,-274.68 270.96,-573.15 270.96,-896.92 0,-473.15 -173.59,-864.6 -522.95,-1169.77 -349.67,-305.47 -901.24,-456.69 -1655.02,-456.69l-3229.15 0 0 3313.6zm13111.33 5592.48l0 -10010.61 1355.43 0 0 10010.61 -1355.43 0zm7285.81 -4872.69c0,-1659.09 456.68,-2959.34 1367.25,-3898.33 910.88,-938.99 2085.57,-1407.57 3526.56,-1407.57 943.86,0 1792.83,221.33 2551.28,661.87 756.26,440.53 1333.97,1055.44 1731.23,1845.66 396.95,787.48 596.67,1682.26 596.67,2681.91 0,1013.69 -209.36,1922.5 -627.78,2721.85 -418.42,801.5 -1010.43,1407.58 -1776.03,1817.62 -768.08,412.49 -1595.6,617.36 -2482.52,617.36 -963.15,0 -1821.45,-228.35 -2579.9,-682.6 -756.27,-454.56 -1331.79,-1074.35 -1721.59,-1861.82 -390.11,-785.34 -585.16,-1617.32 -585.16,-2495.95zm1398.36 23.47c0,1204.83 330.38,2152.97 991.46,2845.32 661.07,692.05 1491.06,1039.29 2489.67,1039.29 1017.59,0 1852.25,-349.68 2510.83,-1048.75 656.41,-699.06 984.61,-1691.7 984.61,-2977.94 0,-813.39 -140.3,-1524.03 -420.9,-2130.11 -280.61,-605.77 -691.87,-1076.48 -1231.62,-1409.7 -542.24,-333.23 -1148.55,-500.9 -1821.45,-500.9 -955.99,0 -1778.83,321.63 -2468.21,964.6 -689.7,643.27 -1034.38,1715.19 -1034.38,3218.18z"/>
   <path class="fil0" d="M657247.58 85531.2l11403.37 -659.2c533.88,2966.4 1793.81,5397.14 3779.69,7306.01 1985.97,1895.16 5060.95,3433.36 9225.04,4614.4 4164.19,1167.23 8862.17,1757.81 14072.7,1757.81 4633.77,0 8712.5,-439.5 12257.36,-1332.13 3544.85,-892.62 6171.5,-2114.85 7901.09,-3666.78 1729.8,-1551.83 2605.22,-3241 2605.22,-5053.71 0,-1840.26 -832.74,-3447.08 -2498.42,-4834.11 -1665.68,-1373.31 -4420.37,-2526.9 -8264.17,-3474.53 -2455.74,-604.21 -7901.2,-1565.56 -16336.19,-2870.24 -8434.89,-1304.57 -14328.68,-2526.8 -17702.71,-3680.41 -4377.69,-1483.2 -7623.49,-3323.45 -9758.94,-5507.03 -2156.79,-2183.57 -3224.46,-4641.76 -3224.46,-7347.19 0,-2993.86 1323.95,-5781.64 3950.5,-8363.55 2626.65,-2595.53 6449.02,-4559.41 11509.97,-5905.26 5039.61,-1345.85 10655.89,-2018.77 16827.29,-2018.77 6790.65,0 12791.34,700.47 17980.43,2114.95 5189.1,1400.76 9182.47,3474.54 11979.84,6221.14 2797.47,2732.89 4292.14,5836.54 4505.73,9297.34l-11659.45 576.75c-619.24,-3721.68 -2733.35,-6537 -6342.32,-8432.16 -3608.87,-1908.88 -8947.43,-2856.51 -15994.45,-2856.51 -7345.88,0 -12705.79,865.27 -16058.48,2595.63 -3352.69,1730.36 -5039.61,3817.76 -5039.61,6262.32 0,2114.85 1195.71,3859.03 3566.1,5232.34 2348.94,1359.57 8434.99,2774.05 18300.81,4202.26 9865.63,1442.03 16635.04,2691.7 20308.03,3762.95 5317.13,1579.28 9267.73,3570.6 11808.93,6001.34 2541.28,2417 3801.03,5204.88 3801.03,8363.54 0,3144.84 -1387.97,6083.79 -4185.35,8857.84 -2797.46,2774.06 -6790.64,4930.19 -12022.51,6468.29 -5231.86,1538.11 -11104.32,2307.21 -17660.13,2307.21 -8285.51,0 -15225.64,-782.83 -20820.48,-2334.66 -5616.36,-1551.82 -9993.87,-3886.48 -13175.64,-7017.59 -3203.31,-3117.48 -4868.89,-6646.91 -5039.81,-10588.3z"/>
  </g>
 </g>
</svg>
