<?xml version="1.0" encoding="UTF-8"?>
<!DOCTYPE svg PUBLIC "-//W3C//DTD SVG 1.1//EN" "http://www.w3.org/Graphics/SVG/1.1/DTD/svg11.dtd">
<!-- Creator: CorelDRAW 2020 (64 Bit) -->
<svg xmlns="http://www.w3.org/2000/svg" xml:space="preserve" width="7676.31mm" height="1550.15mm" version="1.1" style="shape-rendering:geometricPrecision; text-rendering:geometricPrecision; image-rendering:optimizeQuality; fill-rule:evenodd; clip-rule:evenodd"
viewBox="0 0 760885.13 153652.18"
 xmlns:xlink="http://www.w3.org/1999/xlink"
 xmlns:xodm="http://www.corel.com/coreldraw/odm/2003">
 <defs>
  <style type="text/css">
   <![CDATA[
    .fil80 {fill:#BDBFC1;fill-rule:nonzero}
    .fil0 {fill:lime;fill-rule:nonzero}
    .fil77 {fill:#B3B3B3;fill-rule:nonzero}
    .fil78 {fill:#B3B3B3;fill-rule:nonzero}
    .fil76 {fill:#B4B4B4;fill-rule:nonzero}
    .fil75 {fill:#B5B5B5;fill-rule:nonzero}
    .fil74 {fill:#B6B6B6;fill-rule:nonzero}
    .fil73 {fill:#B7B7B7;fill-rule:nonzero}
    .fil72 {fill:#B8B8B8;fill-rule:nonzero}
    .fil71 {fill:#B9B9B9;fill-rule:nonzero}
    .fil70 {fill:#BABABA;fill-rule:nonzero}
    .fil69 {fill:#BBBBBB;fill-rule:nonzero}
    .fil68 {fill:#BCBCBC;fill-rule:nonzero}
    .fil67 {fill:#BDBDBD;fill-rule:nonzero}
    .fil66 {fill:#BEBEBE;fill-rule:nonzero}
    .fil65 {fill:#BFBFBF;fill-rule:nonzero}
    .fil64 {fill:silver;fill-rule:nonzero}
    .fil63 {fill:#C1C1C1;fill-rule:nonzero}
    .fil62 {fill:#C2C2C2;fill-rule:nonzero}
    .fil61 {fill:#C3C3C3;fill-rule:nonzero}
    .fil60 {fill:#C4C4C4;fill-rule:nonzero}
    .fil59 {fill:#C5C5C5;fill-rule:nonzero}
    .fil58 {fill:#C6C6C6;fill-rule:nonzero}
    .fil57 {fill:#C7C7C7;fill-rule:nonzero}
    .fil56 {fill:#C8C8C8;fill-rule:nonzero}
    .fil55 {fill:#C9C9C9;fill-rule:nonzero}
    .fil54 {fill:#CACACA;fill-rule:nonzero}
    .fil53 {fill:#CBCBCB;fill-rule:nonzero}
    .fil52 {fill:#CCCCCC;fill-rule:nonzero}
    .fil51 {fill:#CDCDCD;fill-rule:nonzero}
    .fil50 {fill:#CECECE;fill-rule:nonzero}
    .fil49 {fill:#CFCFCF;fill-rule:nonzero}
    .fil48 {fill:#D0D0D0;fill-rule:nonzero}
    .fil47 {fill:#D1D1D1;fill-rule:nonzero}
    .fil46 {fill:#D2D2D2;fill-rule:nonzero}
    .fil45 {fill:lightgrey;fill-rule:nonzero}
    .fil44 {fill:#D4D4D4;fill-rule:nonzero}
    .fil43 {fill:#D5D5D5;fill-rule:nonzero}
    .fil42 {fill:#D6D6D6;fill-rule:nonzero}
    .fil41 {fill:#D7D7D7;fill-rule:nonzero}
    .fil40 {fill:#D8D8D8;fill-rule:nonzero}
    .fil39 {fill:#D9D9D9;fill-rule:nonzero}
    .fil38 {fill:#DADADA;fill-rule:nonzero}
    .fil37 {fill:#DBDBDB;fill-rule:nonzero}
    .fil36 {fill:gainsboro;fill-rule:nonzero}
    .fil35 {fill:#DDDDDD;fill-rule:nonzero}
    .fil34 {fill:#DEDEDE;fill-rule:nonzero}
    .fil33 {fill:#DFDFDF;fill-rule:nonzero}
    .fil32 {fill:#E0E0E0;fill-rule:nonzero}
    .fil31 {fill:#E1E1E1;fill-rule:nonzero}
    .fil30 {fill:#E2E2E2;fill-rule:nonzero}
    .fil29 {fill:#E3E3E3;fill-rule:nonzero}
    .fil28 {fill:#E4E4E4;fill-rule:nonzero}
    .fil27 {fill:#E5E5E5;fill-rule:nonzero}
    .fil26 {fill:#E6E6E6;fill-rule:nonzero}
    .fil25 {fill:#E7E7E7;fill-rule:nonzero}
    .fil24 {fill:#E8E8E8;fill-rule:nonzero}
    .fil23 {fill:#E9E9E9;fill-rule:nonzero}
    .fil22 {fill:#EAEAEA;fill-rule:nonzero}
    .fil21 {fill:#EBEBEB;fill-rule:nonzero}
    .fil20 {fill:#ECECEC;fill-rule:nonzero}
    .fil19 {fill:#EDEDED;fill-rule:nonzero}
    .fil18 {fill:#EEEEEE;fill-rule:nonzero}
    .fil17 {fill:#EFEFEF;fill-rule:nonzero}
    .fil16 {fill:#F0F0F0;fill-rule:nonzero}
    .fil15 {fill:#F1F1F1;fill-rule:nonzero}
    .fil14 {fill:#F2F2F2;fill-rule:nonzero}
    .fil13 {fill:#F3F3F3;fill-rule:nonzero}
    .fil12 {fill:#F4F4F4;fill-rule:nonzero}
    .fil11 {fill:whitesmoke;fill-rule:nonzero}
    .fil10 {fill:#F6F6F6;fill-rule:nonzero}
    .fil9 {fill:#F7F7F7;fill-rule:nonzero}
    .fil8 {fill:#F8F8F8;fill-rule:nonzero}
    .fil7 {fill:#F9F9F9;fill-rule:nonzero}
    .fil6 {fill:#FAFAFA;fill-rule:nonzero}
    .fil5 {fill:#FBFBFB;fill-rule:nonzero}
    .fil4 {fill:#FCFCFC;fill-rule:nonzero}
    .fil3 {fill:#FDFDFD;fill-rule:nonzero}
    .fil2 {fill:#FEFEFE;fill-rule:nonzero}
    .fil1 {fill:white;fill-rule:nonzero}
    .fil79 {fill:url(#id2);fill-rule:nonzero}
   ]]>
  </style>
     <clipPath id="id0" style="clip-rule:nonzero">
      <path d="M478667.77 109835.06l14697.09 0 14102.67 -22166.21 -7249.27 -10682.96 -21550.5 32849.17z"/>
     </clipPath>
     <clipPath id="id1" style="clip-rule:nonzero">
      <path d="M116479.65 46369.51l14697.1 0 14102.67 22166.21 -7249.27 10682.96 -21550.51 -32849.17z"/>
     </clipPath>
  <linearGradient id="id2" gradientUnits="userSpaceOnUse" x1="163830.04" y1="0" x2="163830.04" y2="48193.43">
   <stop offset="0" style="stop-opacity:1; stop-color:white"/>
   <stop offset="1" style="stop-opacity:1; stop-color:#B3B3B3"/>
  </linearGradient>
 </defs>
 <g id="Camada_x0020_1">
  <metadata id="CorelCorpID_0Corel-Layer"/>
  <g id="_1796320958656">
   <polygon class="fil0" points="508940.71,85353.46 525844.85,58783.93 558350.9,109835.06 573047.99,109835.06 531362.97,46295.17 520352.78,46295.17 501714.95,74704.8 "/>
   <g>
    <g style="clip-path:url(#id0)">
     <polygon class="fil1" points="507467.53,76985.89 507467.53,77050.05 478667.77,77050.05 478667.77,76985.89 "/>
     <polygon id="1" class="fil1" points="507467.53,76985.89 507467.53,77178.36 478667.77,77178.36 478667.77,76985.89 "/>
     <polygon id="2" class="fil1" points="507467.53,77114.2 507467.53,77306.68 478667.77,77306.68 478667.77,77114.2 "/>
     <polygon id="3" class="fil2" points="507467.53,77242.52 507467.53,77435 478667.77,77435 478667.77,77242.52 "/>
     <polygon id="4" class="fil2" points="507467.53,77370.83 507467.53,77563.32 478667.77,77563.32 478667.77,77370.83 "/>
     <polygon id="5" class="fil2" points="507467.53,77499.16 507467.53,77691.63 478667.77,77691.63 478667.77,77499.16 "/>
     <polygon id="6" class="fil2" points="507467.53,77627.47 507467.53,77819.95 478667.77,77819.95 478667.77,77627.47 "/>
     <polygon id="7" class="fil3" points="507467.53,77755.79 507467.53,77948.27 478667.77,77948.27 478667.77,77755.79 "/>
     <polygon id="8" class="fil3" points="507467.53,77884.1 507467.53,78076.59 478667.77,78076.59 478667.77,77884.1 "/>
     <polygon id="9" class="fil3" points="507467.53,78012.43 507467.53,78204.9 478667.77,78204.9 478667.77,78012.43 "/>
     <polygon id="10" class="fil4" points="507467.53,78140.74 507467.53,78333.22 478667.77,78333.22 478667.77,78140.74 "/>
     <polygon id="11" class="fil4" points="507467.53,78269.06 507467.53,78461.53 478667.77,78461.53 478667.77,78269.06 "/>
     <polygon id="12" class="fil4" points="507467.53,78397.37 507467.53,78589.85 478667.77,78589.85 478667.77,78397.37 "/>
     <polygon id="13" class="fil5" points="507467.53,78525.7 507467.53,78718.17 478667.77,78718.17 478667.77,78525.7 "/>
     <polygon id="14" class="fil5" points="507467.53,78654.01 507467.53,78846.48 478667.77,78846.48 478667.77,78654.01 "/>
     <polygon id="15" class="fil5" points="507467.53,78782.33 507467.53,78974.8 478667.77,78974.8 478667.77,78782.33 "/>
     <polygon id="16" class="fil5" points="507467.53,78910.64 507467.53,79103.12 478667.77,79103.12 478667.77,78910.64 "/>
     <polygon id="17" class="fil6" points="507467.53,79038.96 507467.53,79231.44 478667.77,79231.44 478667.77,79038.96 "/>
     <polygon id="18" class="fil6" points="507467.53,79167.28 507467.53,79359.75 478667.77,79359.75 478667.77,79167.28 "/>
     <polygon id="19" class="fil6" points="507467.53,79295.6 507467.53,79488.07 478667.77,79488.07 478667.77,79295.6 "/>
     <polygon id="20" class="fil7" points="507467.53,79423.91 507467.53,79616.39 478667.77,79616.39 478667.77,79423.91 "/>
     <polygon id="21" class="fil7" points="507467.53,79552.23 507467.53,79744.71 478667.77,79744.71 478667.77,79552.23 "/>
     <polygon id="22" class="fil7" points="507467.53,79680.55 507467.53,79873.02 478667.77,79873.02 478667.77,79680.55 "/>
     <polygon id="23" class="fil8" points="507467.53,79808.86 507467.53,80001.34 478667.77,80001.34 478667.77,79808.86 "/>
     <polygon id="24" class="fil8" points="507467.53,79937.18 507467.53,80129.65 478667.77,80129.65 478667.77,79937.18 "/>
     <polygon id="25" class="fil8" points="507467.53,80065.49 507467.53,80257.98 478667.77,80257.98 478667.77,80065.49 "/>
     <polygon id="26" class="fil8" points="507467.53,80193.82 507467.53,80386.29 478667.77,80386.29 478667.77,80193.82 "/>
     <polygon id="27" class="fil9" points="507467.53,80322.13 507467.53,80514.61 478667.77,80514.61 478667.77,80322.13 "/>
     <polygon id="28" class="fil9" points="507467.53,80450.45 507467.53,80642.92 478667.77,80642.92 478667.77,80450.45 "/>
     <polygon id="29" class="fil9" points="507467.53,80578.76 507467.53,80771.25 478667.77,80771.25 478667.77,80578.76 "/>
     <polygon id="30" class="fil10" points="507467.53,80707.08 507467.53,80899.56 478667.77,80899.56 478667.77,80707.08 "/>
     <polygon id="31" class="fil10" points="507467.53,80835.4 507467.53,81027.87 478667.77,81027.87 478667.77,80835.4 "/>
     <polygon id="32" class="fil10" points="507467.53,80963.72 507467.53,81156.19 478667.77,81156.19 478667.77,80963.72 "/>
     <polygon id="33" class="fil11" points="507467.53,81092.03 507467.53,81284.51 478667.77,81284.51 478667.77,81092.03 "/>
     <polygon id="34" class="fil11" points="507467.53,81220.35 507467.53,81412.83 478667.77,81412.83 478667.77,81220.35 "/>
     <polygon id="35" class="fil11" points="507467.53,81348.67 507467.53,81541.14 478667.77,81541.14 478667.77,81348.67 "/>
     <polygon id="36" class="fil11" points="507467.53,81476.99 507467.53,81669.46 478667.77,81669.46 478667.77,81476.99 "/>
     <polygon id="37" class="fil12" points="507467.53,81605.3 507467.53,81797.77 478667.77,81797.77 478667.77,81605.3 "/>
     <polygon id="38" class="fil12" points="507467.53,81733.62 507467.53,81926.1 478667.77,81926.1 478667.77,81733.62 "/>
     <polygon id="39" class="fil12" points="507467.53,81861.94 507467.53,82054.41 478667.77,82054.41 478667.77,81861.94 "/>
     <polygon id="40" class="fil13" points="507467.53,81990.26 507467.53,82182.73 478667.77,82182.73 478667.77,81990.26 "/>
     <polygon id="41" class="fil13" points="507467.53,82118.57 507467.53,82311.04 478667.77,82311.04 478667.77,82118.57 "/>
     <polygon id="42" class="fil13" points="507467.53,82246.88 507467.53,82439.37 478667.77,82439.37 478667.77,82246.88 "/>
     <polygon id="43" class="fil14" points="507467.53,82375.2 507467.53,82567.68 478667.77,82567.68 478667.77,82375.2 "/>
     <polygon id="44" class="fil14" points="507467.53,82503.52 507467.53,82696 478667.77,82696 478667.77,82503.52 "/>
     <polygon id="45" class="fil14" points="507467.53,82631.84 507467.53,82824.31 478667.77,82824.31 478667.77,82631.84 "/>
     <polygon id="46" class="fil14" points="507467.53,82760.15 507467.53,82952.63 478667.77,82952.63 478667.77,82760.15 "/>
     <polygon id="47" class="fil15" points="507467.53,82888.47 507467.53,83080.95 478667.77,83080.95 478667.77,82888.47 "/>
     <polygon id="48" class="fil15" points="507467.53,83016.79 507467.53,83209.27 478667.77,83209.27 478667.77,83016.79 "/>
     <polygon id="49" class="fil15" points="507467.53,83145.11 507467.53,83337.58 478667.77,83337.58 478667.77,83145.11 "/>
     <polygon id="50" class="fil16" points="507467.53,83273.42 507467.53,83465.89 478667.77,83465.89 478667.77,83273.42 "/>
     <polygon id="51" class="fil16" points="507467.53,83401.74 507467.53,83594.22 478667.77,83594.22 478667.77,83401.74 "/>
     <polygon id="52" class="fil16" points="507467.53,83530.06 507467.53,83722.53 478667.77,83722.53 478667.77,83530.06 "/>
     <polygon id="53" class="fil16" points="507467.53,83658.38 507467.53,83850.85 478667.77,83850.85 478667.77,83658.38 "/>
     <polygon id="54" class="fil17" points="507467.53,83786.69 507467.53,83979.16 478667.77,83979.16 478667.77,83786.69 "/>
     <polygon id="55" class="fil17" points="507467.53,83915.01 507467.53,84107.49 478667.77,84107.49 478667.77,83915.01 "/>
     <polygon id="56" class="fil17" points="507467.53,84043.32 507467.53,84235.8 478667.77,84235.8 478667.77,84043.32 "/>
     <polygon id="57" class="fil18" points="507467.53,84171.65 507467.53,84364.12 478667.77,84364.12 478667.77,84171.65 "/>
     <polygon id="58" class="fil18" points="507467.53,84299.96 507467.53,84492.43 478667.77,84492.43 478667.77,84299.96 "/>
     <polygon id="59" class="fil18" points="507467.53,84428.28 507467.53,84620.75 478667.77,84620.75 478667.77,84428.28 "/>
     <polygon id="60" class="fil19" points="507467.53,84556.59 507467.53,84749.07 478667.77,84749.07 478667.77,84556.59 "/>
     <polygon id="61" class="fil19" points="507467.53,84684.92 507467.53,84877.39 478667.77,84877.39 478667.77,84684.92 "/>
     <polygon id="62" class="fil19" points="507467.53,84813.23 507467.53,85005.7 478667.77,85005.7 478667.77,84813.23 "/>
     <polygon id="63" class="fil19" points="507467.53,84941.54 507467.53,85134.02 478667.77,85134.02 478667.77,84941.54 "/>
     <polygon id="64" class="fil20" points="507467.53,85069.86 507467.53,85262.34 478667.77,85262.34 478667.77,85069.86 "/>
     <polygon id="65" class="fil20" points="507467.53,85198.18 507467.53,85390.66 478667.77,85390.66 478667.77,85198.18 "/>
     <polygon id="66" class="fil20" points="507467.53,85326.5 507467.53,85518.97 478667.77,85518.97 478667.77,85326.5 "/>
     <polygon id="67" class="fil21" points="507467.53,85454.81 507467.53,85647.29 478667.77,85647.29 478667.77,85454.81 "/>
     <polygon id="68" class="fil21" points="507467.53,85583.13 507467.53,85775.61 478667.77,85775.61 478667.77,85583.13 "/>
     <polygon id="69" class="fil21" points="507467.53,85711.44 507467.53,85903.93 478667.77,85903.93 478667.77,85711.44 "/>
     <polygon id="70" class="fil22" points="507467.53,85839.77 507467.53,86032.24 478667.77,86032.24 478667.77,85839.77 "/>
     <polygon id="71" class="fil22" points="507467.53,85968.08 507467.53,86160.55 478667.77,86160.55 478667.77,85968.08 "/>
     <polygon id="72" class="fil22" points="507467.53,86096.4 507467.53,86288.87 478667.77,86288.87 478667.77,86096.4 "/>
     <polygon id="73" class="fil22" points="507467.53,86224.71 507467.53,86417.19 478667.77,86417.19 478667.77,86224.71 "/>
     <polygon id="74" class="fil23" points="507467.53,86353.04 507467.53,86545.51 478667.77,86545.51 478667.77,86353.04 "/>
     <polygon id="75" class="fil23" points="507467.53,86481.35 507467.53,86673.82 478667.77,86673.82 478667.77,86481.35 "/>
     <polygon id="76" class="fil23" points="507467.53,86609.67 507467.53,86802.14 478667.77,86802.14 478667.77,86609.67 "/>
     <polygon id="77" class="fil24" points="507467.53,86737.98 507467.53,86930.46 478667.77,86930.46 478667.77,86737.98 "/>
     <polygon id="78" class="fil24" points="507467.53,86866.31 507467.53,87058.78 478667.77,87058.78 478667.77,86866.31 "/>
     <polygon id="79" class="fil24" points="507467.53,86994.62 507467.53,87187.09 478667.77,87187.09 478667.77,86994.62 "/>
     <polygon id="80" class="fil25" points="507467.53,87122.94 507467.53,87315.41 478667.77,87315.41 478667.77,87122.94 "/>
     <polygon id="81" class="fil25" points="507467.53,87251.25 507467.53,87443.73 478667.77,87443.73 478667.77,87251.25 "/>
     <polygon id="82" class="fil25" points="507467.53,87379.56 507467.53,87572.05 478667.77,87572.05 478667.77,87379.56 "/>
     <polygon id="83" class="fil25" points="507467.53,87507.89 507467.53,87700.36 478667.77,87700.36 478667.77,87507.89 "/>
     <polygon id="84" class="fil26" points="507467.53,87636.2 507467.53,87828.68 478667.77,87828.68 478667.77,87636.2 "/>
     <polygon id="85" class="fil26" points="507467.53,87764.52 507467.53,87956.99 478667.77,87956.99 478667.77,87764.52 "/>
     <polygon id="86" class="fil26" points="507467.53,87892.83 507467.53,88085.32 478667.77,88085.32 478667.77,87892.83 "/>
     <polygon id="87" class="fil27" points="507467.53,88021.16 507467.53,88213.63 478667.77,88213.63 478667.77,88021.16 "/>
     <polygon id="88" class="fil27" points="507467.53,88149.47 507467.53,88341.95 478667.77,88341.95 478667.77,88149.47 "/>
     <polygon id="89" class="fil27" points="507467.53,88277.79 507467.53,88470.26 478667.77,88470.26 478667.77,88277.79 "/>
     <polygon id="90" class="fil28" points="507467.53,88406.1 507467.53,88598.58 478667.77,88598.58 478667.77,88406.1 "/>
     <polygon id="91" class="fil28" points="507467.53,88534.42 507467.53,88726.9 478667.77,88726.9 478667.77,88534.42 "/>
     <polygon id="92" class="fil28" points="507467.53,88662.74 507467.53,88855.21 478667.77,88855.21 478667.77,88662.74 "/>
     <polygon id="93" class="fil28" points="507467.53,88791.06 507467.53,88983.53 478667.77,88983.53 478667.77,88791.06 "/>
     <polygon id="94" class="fil29" points="507467.53,88919.37 507467.53,89111.85 478667.77,89111.85 478667.77,88919.37 "/>
     <polygon id="95" class="fil29" points="507467.53,89047.69 507467.53,89240.17 478667.77,89240.17 478667.77,89047.69 "/>
     <polygon id="96" class="fil29" points="507467.53,89176.01 507467.53,89368.48 478667.77,89368.48 478667.77,89176.01 "/>
     <polygon id="97" class="fil30" points="507467.53,89304.33 507467.53,89496.8 478667.77,89496.8 478667.77,89304.33 "/>
     <polygon id="98" class="fil30" points="507467.53,89432.64 507467.53,89625.11 478667.77,89625.11 478667.77,89432.64 "/>
     <polygon id="99" class="fil30" points="507467.53,89560.96 507467.53,89753.44 478667.77,89753.44 478667.77,89560.96 "/>
     <polygon id="100" class="fil31" points="507467.53,89689.28 507467.53,89881.75 478667.77,89881.75 478667.77,89689.28 "/>
     <polygon id="101" class="fil31" points="507467.53,89817.59 507467.53,90010.07 478667.77,90010.07 478667.77,89817.59 "/>
     <polygon id="102" class="fil31" points="507467.53,89945.91 507467.53,90138.38 478667.77,90138.38 478667.77,89945.91 "/>
     <polygon id="103" class="fil31" points="507467.53,90074.22 507467.53,90266.71 478667.77,90266.71 478667.77,90074.22 "/>
     <polygon id="104" class="fil32" points="507467.53,90202.54 507467.53,90395.02 478667.77,90395.02 478667.77,90202.54 "/>
     <polygon id="105" class="fil32" points="507467.53,90330.86 507467.53,90523.34 478667.77,90523.34 478667.77,90330.86 "/>
     <polygon id="106" class="fil32" points="507467.53,90459.18 507467.53,90651.65 478667.77,90651.65 478667.77,90459.18 "/>
     <polygon id="107" class="fil33" points="507467.53,90587.49 507467.53,90779.98 478667.77,90779.98 478667.77,90587.49 "/>
     <polygon id="108" class="fil33" points="507467.53,90715.81 507467.53,90908.29 478667.77,90908.29 478667.77,90715.81 "/>
     <polygon id="109" class="fil33" points="507467.53,90844.13 507467.53,91036.6 478667.77,91036.6 478667.77,90844.13 "/>
     <polygon id="110" class="fil33" points="507467.53,90972.45 507467.53,91164.92 478667.77,91164.92 478667.77,90972.45 "/>
     <polygon id="111" class="fil34" points="507467.53,91100.76 507467.53,91293.23 478667.77,91293.23 478667.77,91100.76 "/>
     <polygon id="112" class="fil34" points="507467.53,91229.08 507467.53,91421.56 478667.77,91421.56 478667.77,91229.08 "/>
     <polygon id="113" class="fil34" points="507467.53,91357.4 507467.53,91549.87 478667.77,91549.87 478667.77,91357.4 "/>
     <polygon id="114" class="fil35" points="507467.53,91485.72 507467.53,91678.19 478667.77,91678.19 478667.77,91485.72 "/>
     <polygon id="115" class="fil35" points="507467.53,91614.03 507467.53,91806.5 478667.77,91806.5 478667.77,91614.03 "/>
     <polygon id="116" class="fil35" points="507467.53,91742.35 507467.53,91934.83 478667.77,91934.83 478667.77,91742.35 "/>
     <polygon id="117" class="fil36" points="507467.53,91870.66 507467.53,92063.14 478667.77,92063.14 478667.77,91870.66 "/>
     <polygon id="118" class="fil36" points="507467.53,91998.99 507467.53,92191.46 478667.77,92191.46 478667.77,91998.99 "/>
     <polygon id="119" class="fil36" points="507467.53,92127.3 507467.53,92319.77 478667.77,92319.77 478667.77,92127.3 "/>
     <polygon id="120" class="fil36" points="507467.53,92255.62 507467.53,92448.1 478667.77,92448.1 478667.77,92255.62 "/>
     <polygon id="121" class="fil37" points="507467.53,92383.93 507467.53,92576.41 478667.77,92576.41 478667.77,92383.93 "/>
     <polygon id="122" class="fil37" points="507467.53,92512.25 507467.53,92704.73 478667.77,92704.73 478667.77,92512.25 "/>
     <polygon id="123" class="fil37" points="507467.53,92640.57 507467.53,92833.04 478667.77,92833.04 478667.77,92640.57 "/>
     <polygon id="124" class="fil38" points="507467.53,92768.88 507467.53,92961.36 478667.77,92961.36 478667.77,92768.88 "/>
     <polygon id="125" class="fil38" points="507467.53,92897.2 507467.53,93089.68 478667.77,93089.68 478667.77,92897.2 "/>
     <polygon id="126" class="fil38" points="507467.53,93025.52 507467.53,93218 478667.77,93218 478667.77,93025.52 "/>
     <polygon id="127" class="fil39" points="507467.53,93153.84 507467.53,93346.31 478667.77,93346.31 478667.77,93153.84 "/>
     <polygon id="128" class="fil39" points="507467.53,93282.15 507467.53,93474.63 478667.77,93474.63 478667.77,93282.15 "/>
     <polygon id="129" class="fil39" points="507467.53,93410.47 507467.53,93602.95 478667.77,93602.95 478667.77,93410.47 "/>
     <polygon id="130" class="fil39" points="507467.53,93538.78 507467.53,93731.26 478667.77,93731.26 478667.77,93538.78 "/>
     <polygon id="131" class="fil40" points="507467.53,93667.11 507467.53,93859.58 478667.77,93859.58 478667.77,93667.11 "/>
     <polygon id="132" class="fil40" points="507467.53,93795.42 507467.53,93987.89 478667.77,93987.89 478667.77,93795.42 "/>
     <polygon id="133" class="fil40" points="507467.53,93923.74 507467.53,94116.21 478667.77,94116.21 478667.77,93923.74 "/>
     <polygon id="134" class="fil41" points="507467.53,94052.05 507467.53,94244.53 478667.77,94244.53 478667.77,94052.05 "/>
     <polygon id="135" class="fil41" points="507467.53,94180.38 507467.53,94372.85 478667.77,94372.85 478667.77,94180.38 "/>
     <polygon id="136" class="fil41" points="507467.53,94308.69 507467.53,94501.16 478667.77,94501.16 478667.77,94308.69 "/>
     <polygon id="137" class="fil42" points="507467.53,94437.01 507467.53,94629.48 478667.77,94629.48 478667.77,94437.01 "/>
     <polygon id="138" class="fil42" points="507467.53,94565.32 507467.53,94757.8 478667.77,94757.8 478667.77,94565.32 "/>
     <polygon id="139" class="fil42" points="507467.53,94693.65 507467.53,94886.12 478667.77,94886.12 478667.77,94693.65 "/>
     <polygon id="140" class="fil42" points="507467.53,94821.96 507467.53,95014.43 478667.77,95014.43 478667.77,94821.96 "/>
     <polygon id="141" class="fil43" points="507467.53,94950.27 507467.53,95142.75 478667.77,95142.75 478667.77,94950.27 "/>
     <polygon id="142" class="fil43" points="507467.53,95078.59 507467.53,95271.07 478667.77,95271.07 478667.77,95078.59 "/>
     <polygon id="143" class="fil43" points="507467.53,95206.9 507467.53,95399.39 478667.77,95399.39 478667.77,95206.9 "/>
     <polygon id="144" class="fil44" points="507467.53,95335.23 507467.53,95527.7 478667.77,95527.7 478667.77,95335.23 "/>
     <polygon id="145" class="fil44" points="507467.53,95463.54 507467.53,95656.02 478667.77,95656.02 478667.77,95463.54 "/>
     <polygon id="146" class="fil44" points="507467.53,95591.86 507467.53,95784.33 478667.77,95784.33 478667.77,95591.86 "/>
     <polygon id="147" class="fil45" points="507467.53,95720.17 507467.53,95912.66 478667.77,95912.66 478667.77,95720.17 "/>
     <polygon id="148" class="fil45" points="507467.53,95848.5 507467.53,96040.97 478667.77,96040.97 478667.77,95848.5 "/>
     <polygon id="149" class="fil45" points="507467.53,95976.81 507467.53,96169.28 478667.77,96169.28 478667.77,95976.81 "/>
     <polygon id="150" class="fil45" points="507467.53,96105.13 507467.53,96297.6 478667.77,96297.6 478667.77,96105.13 "/>
     <polygon id="151" class="fil46" points="507467.53,96233.44 507467.53,96425.92 478667.77,96425.92 478667.77,96233.44 "/>
     <polygon id="152" class="fil46" points="507467.53,96361.77 507467.53,96554.24 478667.77,96554.24 478667.77,96361.77 "/>
     <polygon id="153" class="fil46" points="507467.53,96490.08 507467.53,96682.55 478667.77,96682.55 478667.77,96490.08 "/>
     <polygon id="154" class="fil47" points="507467.53,96618.4 507467.53,96810.87 478667.77,96810.87 478667.77,96618.4 "/>
     <polygon id="155" class="fil47" points="507467.53,96746.71 507467.53,96939.19 478667.77,96939.19 478667.77,96746.71 "/>
     <polygon id="156" class="fil47" points="507467.53,96875.03 507467.53,97067.51 478667.77,97067.51 478667.77,96875.03 "/>
     <polygon id="157" class="fil47" points="507467.53,97003.35 507467.53,97195.82 478667.77,97195.82 478667.77,97003.35 "/>
     <polygon id="158" class="fil48" points="507467.53,97131.67 507467.53,97324.14 478667.77,97324.14 478667.77,97131.67 "/>
     <polygon id="159" class="fil48" points="507467.53,97259.98 507467.53,97452.45 478667.77,97452.45 478667.77,97259.98 "/>
     <polygon id="160" class="fil48" points="507467.53,97388.29 507467.53,97580.78 478667.77,97580.78 478667.77,97388.29 "/>
     <polygon id="161" class="fil49" points="507467.53,97516.62 507467.53,97709.09 478667.77,97709.09 478667.77,97516.62 "/>
     <polygon id="162" class="fil49" points="507467.53,97644.93 507467.53,97837.41 478667.77,97837.41 478667.77,97644.93 "/>
     <polygon id="163" class="fil49" points="507467.53,97773.25 507467.53,97965.72 478667.77,97965.72 478667.77,97773.25 "/>
     <polygon id="164" class="fil50" points="507467.53,97901.56 507467.53,98094.05 478667.77,98094.05 478667.77,97901.56 "/>
     <polygon id="165" class="fil50" points="507467.53,98029.89 507467.53,98222.36 478667.77,98222.36 478667.77,98029.89 "/>
     <polygon id="166" class="fil50" points="507467.53,98158.2 507467.53,98350.68 478667.77,98350.68 478667.77,98158.2 "/>
     <polygon id="167" class="fil50" points="507467.53,98286.52 507467.53,98478.99 478667.77,98478.99 478667.77,98286.52 "/>
     <polygon id="168" class="fil51" points="507467.53,98414.83 507467.53,98607.32 478667.77,98607.32 478667.77,98414.83 "/>
     <polygon id="169" class="fil51" points="507467.53,98543.15 507467.53,98735.63 478667.77,98735.63 478667.77,98543.15 "/>
     <polygon id="170" class="fil51" points="507467.53,98671.47 507467.53,98863.94 478667.77,98863.94 478667.77,98671.47 "/>
     <polygon id="171" class="fil52" points="507467.53,98799.79 507467.53,98992.26 478667.77,98992.26 478667.77,98799.79 "/>
     <polygon id="172" class="fil52" points="507467.53,98928.1 507467.53,99120.57 478667.77,99120.57 478667.77,98928.1 "/>
     <polygon id="173" class="fil52" points="507467.53,99056.42 507467.53,99248.9 478667.77,99248.9 478667.77,99056.42 "/>
     <polygon id="174" class="fil53" points="507467.53,99184.74 507467.53,99377.21 478667.77,99377.21 478667.77,99184.74 "/>
     <polygon id="175" class="fil53" points="507467.53,99313.06 507467.53,99505.53 478667.77,99505.53 478667.77,99313.06 "/>
     <polygon id="176" class="fil53" points="507467.53,99441.37 507467.53,99633.84 478667.77,99633.84 478667.77,99441.37 "/>
     <polygon id="177" class="fil53" points="507467.53,99569.69 507467.53,99762.17 478667.77,99762.17 478667.77,99569.69 "/>
     <polygon id="178" class="fil54" points="507467.53,99698.01 507467.53,99890.48 478667.77,99890.48 478667.77,99698.01 "/>
     <polygon id="179" class="fil54" points="507467.53,99826.33 507467.53,100018.8 478667.77,100018.8 478667.77,99826.33 "/>
     <polygon id="180" class="fil54" points="507467.53,99954.64 507467.53,100147.11 478667.77,100147.11 478667.77,99954.64 "/>
     <polygon id="181" class="fil55" points="507467.53,100082.95 507467.53,100275.44 478667.77,100275.44 478667.77,100082.95 "/>
     <polygon id="182" class="fil55" points="507467.53,100211.27 507467.53,100403.75 478667.77,100403.75 478667.77,100211.27 "/>
     <polygon id="183" class="fil55" points="507467.53,100339.59 507467.53,100532.07 478667.77,100532.07 478667.77,100339.59 "/>
     <polygon id="184" class="fil56" points="507467.53,100467.91 507467.53,100660.38 478667.77,100660.38 478667.77,100467.91 "/>
     <polygon id="185" class="fil56" points="507467.53,100596.22 507467.53,100788.7 478667.77,100788.7 478667.77,100596.22 "/>
     <polygon id="186" class="fil56" points="507467.53,100724.54 507467.53,100917.02 478667.77,100917.02 478667.77,100724.54 "/>
     <polygon id="187" class="fil56" points="507467.53,100852.86 507467.53,101045.34 478667.77,101045.34 478667.77,100852.86 "/>
     <polygon id="188" class="fil57" points="507467.53,100981.18 507467.53,101173.65 478667.77,101173.65 478667.77,100981.18 "/>
     <polygon id="189" class="fil57" points="507467.53,101109.49 507467.53,101301.96 478667.77,101301.96 478667.77,101109.49 "/>
     <polygon id="190" class="fil57" points="507467.53,101237.81 507467.53,101430.29 478667.77,101430.29 478667.77,101237.81 "/>
     <polygon id="191" class="fil58" points="507467.53,101366.12 507467.53,101558.6 478667.77,101558.6 478667.77,101366.12 "/>
     <polygon id="192" class="fil58" points="507467.53,101494.45 507467.53,101686.92 478667.77,101686.92 478667.77,101494.45 "/>
     <polygon id="193" class="fil58" points="507467.53,101622.76 507467.53,101815.23 478667.77,101815.23 478667.77,101622.76 "/>
     <polygon id="194" class="fil59" points="507467.53,101751.08 507467.53,101943.56 478667.77,101943.56 478667.77,101751.08 "/>
     <polygon id="195" class="fil59" points="507467.53,101879.39 507467.53,102071.87 478667.77,102071.87 478667.77,101879.39 "/>
     <polygon id="196" class="fil59" points="507467.53,102007.72 507467.53,102200.19 478667.77,102200.19 478667.77,102007.72 "/>
     <polygon id="197" class="fil59" points="507467.53,102136.03 507467.53,102328.5 478667.77,102328.5 478667.77,102136.03 "/>
     <polygon id="198" class="fil60" points="507467.53,102264.35 507467.53,102456.82 478667.77,102456.82 478667.77,102264.35 "/>
     <polygon id="199" class="fil60" points="507467.53,102392.66 507467.53,102585.14 478667.77,102585.14 478667.77,102392.66 "/>
     <polygon id="200" class="fil60" points="507467.53,102520.98 507467.53,102713.46 478667.77,102713.46 478667.77,102520.98 "/>
     <polygon id="201" class="fil61" points="507467.53,102649.3 507467.53,102841.77 478667.77,102841.77 478667.77,102649.3 "/>
     <polygon id="202" class="fil61" points="507467.53,102777.61 507467.53,102970.09 478667.77,102970.09 478667.77,102777.61 "/>
     <polygon id="203" class="fil61" points="507467.53,102905.93 507467.53,103098.41 478667.77,103098.41 478667.77,102905.93 "/>
     <polygon id="204" class="fil62" points="507467.53,103034.24 507467.53,103226.73 478667.77,103226.73 478667.77,103034.24 "/>
     <polygon id="205" class="fil62" points="507467.53,103162.57 507467.53,103355.04 478667.77,103355.04 478667.77,103162.57 "/>
     <polygon id="206" class="fil62" points="507467.53,103290.88 507467.53,103483.36 478667.77,103483.36 478667.77,103290.88 "/>
     <polygon id="207" class="fil62" points="507467.53,103419.2 507467.53,103611.68 478667.77,103611.68 478667.77,103419.2 "/>
     <polygon id="208" class="fil63" points="507467.53,103547.51 507467.53,103739.99 478667.77,103739.99 478667.77,103547.51 "/>
     <polygon id="209" class="fil63" points="507467.53,103675.84 507467.53,103868.31 478667.77,103868.31 478667.77,103675.84 "/>
     <polygon id="210" class="fil63" points="507467.53,103804.15 507467.53,103996.62 478667.77,103996.62 478667.77,103804.15 "/>
     <polygon id="211" class="fil64" points="507467.53,103932.47 507467.53,104124.94 478667.77,104124.94 478667.77,103932.47 "/>
     <polygon id="212" class="fil64" points="507467.53,104060.78 507467.53,104253.26 478667.77,104253.26 478667.77,104060.78 "/>
     <polygon id="213" class="fil64" points="507467.53,104189.11 507467.53,104381.58 478667.77,104381.58 478667.77,104189.11 "/>
     <polygon id="214" class="fil64" points="507467.53,104317.42 507467.53,104509.89 478667.77,104509.89 478667.77,104317.42 "/>
     <polygon id="215" class="fil65" points="507467.53,104445.74 507467.53,104638.21 478667.77,104638.21 478667.77,104445.74 "/>
     <polygon id="216" class="fil65" points="507467.53,104574.05 507467.53,104766.53 478667.77,104766.53 478667.77,104574.05 "/>
     <polygon id="217" class="fil65" points="507467.53,104702.37 507467.53,104894.85 478667.77,104894.85 478667.77,104702.37 "/>
     <polygon id="218" class="fil66" points="507467.53,104830.69 507467.53,105023.16 478667.77,105023.16 478667.77,104830.69 "/>
     <polygon id="219" class="fil66" points="507467.53,104959.01 507467.53,105151.48 478667.77,105151.48 478667.77,104959.01 "/>
     <polygon id="220" class="fil66" points="507467.53,105087.32 507467.53,105279.8 478667.77,105279.8 478667.77,105087.32 "/>
     <polygon id="221" class="fil67" points="507467.53,105215.63 507467.53,105408.12 478667.77,105408.12 478667.77,105215.63 "/>
     <polygon id="222" class="fil67" points="507467.53,105343.96 507467.53,105536.43 478667.77,105536.43 478667.77,105343.96 "/>
     <polygon id="223" class="fil67" points="507467.53,105472.27 507467.53,105664.75 478667.77,105664.75 478667.77,105472.27 "/>
     <polygon id="224" class="fil67" points="507467.53,105600.59 507467.53,105793.06 478667.77,105793.06 478667.77,105600.59 "/>
     <polygon id="225" class="fil68" points="507467.53,105728.9 507467.53,105921.39 478667.77,105921.39 478667.77,105728.9 "/>
     <polygon id="226" class="fil68" points="507467.53,105857.23 507467.53,106049.7 478667.77,106049.7 478667.77,105857.23 "/>
     <polygon id="227" class="fil68" points="507467.53,105985.54 507467.53,106178.02 478667.77,106178.02 478667.77,105985.54 "/>
     <polygon id="228" class="fil69" points="507467.53,106113.86 507467.53,106306.33 478667.77,106306.33 478667.77,106113.86 "/>
     <polygon id="229" class="fil69" points="507467.53,106242.17 507467.53,106434.65 478667.77,106434.65 478667.77,106242.17 "/>
     <polygon id="230" class="fil69" points="507467.53,106370.49 507467.53,106562.97 478667.77,106562.97 478667.77,106370.49 "/>
     <polygon id="231" class="fil70" points="507467.53,106498.81 507467.53,106691.28 478667.77,106691.28 478667.77,106498.81 "/>
     <polygon id="232" class="fil70" points="507467.53,106627.13 507467.53,106819.6 478667.77,106819.6 478667.77,106627.13 "/>
     <polygon id="233" class="fil70" points="507467.53,106755.44 507467.53,106947.91 478667.77,106947.91 478667.77,106755.44 "/>
     <polygon id="234" class="fil70" points="507467.53,106883.76 507467.53,107076.24 478667.77,107076.24 478667.77,106883.76 "/>
     <polygon id="235" class="fil71" points="507467.53,107012.08 507467.53,107204.55 478667.77,107204.55 478667.77,107012.08 "/>
     <polygon id="236" class="fil71" points="507467.53,107140.4 507467.53,107332.87 478667.77,107332.87 478667.77,107140.4 "/>
     <polygon id="237" class="fil71" points="507467.53,107268.71 507467.53,107461.18 478667.77,107461.18 478667.77,107268.71 "/>
     <polygon id="238" class="fil72" points="507467.53,107397.03 507467.53,107589.51 478667.77,107589.51 478667.77,107397.03 "/>
     <polygon id="239" class="fil72" points="507467.53,107525.35 507467.53,107717.82 478667.77,107717.82 478667.77,107525.35 "/>
     <polygon id="240" class="fil72" points="507467.53,107653.66 507467.53,107846.14 478667.77,107846.14 478667.77,107653.66 "/>
     <polygon id="241" class="fil73" points="507467.53,107781.98 507467.53,107974.45 478667.77,107974.45 478667.77,107781.98 "/>
     <polygon id="242" class="fil73" points="507467.53,107910.29 507467.53,108102.78 478667.77,108102.78 478667.77,107910.29 "/>
     <polygon id="243" class="fil73" points="507467.53,108038.61 507467.53,108231.09 478667.77,108231.09 478667.77,108038.61 "/>
     <polygon id="244" class="fil73" points="507467.53,108166.93 507467.53,108359.41 478667.77,108359.41 478667.77,108166.93 "/>
     <polygon id="245" class="fil74" points="507467.53,108295.25 507467.53,108487.72 478667.77,108487.72 478667.77,108295.25 "/>
     <polygon id="246" class="fil74" points="507467.53,108423.56 507467.53,108616.04 478667.77,108616.04 478667.77,108423.56 "/>
     <polygon id="247" class="fil74" points="507467.53,108551.88 507467.53,108744.36 478667.77,108744.36 478667.77,108551.88 "/>
     <polygon id="248" class="fil75" points="507467.53,108680.2 507467.53,108872.67 478667.77,108872.67 478667.77,108680.2 "/>
     <polygon id="249" class="fil75" points="507467.53,108808.52 507467.53,109000.99 478667.77,109000.99 478667.77,108808.52 "/>
     <polygon id="250" class="fil75" points="507467.53,108936.83 507467.53,109129.3 478667.77,109129.3 478667.77,108936.83 "/>
     <polygon id="251" class="fil76" points="507467.53,109065.15 507467.53,109257.63 478667.77,109257.63 478667.77,109065.15 "/>
     <polygon id="252" class="fil76" points="507467.53,109193.47 507467.53,109385.94 478667.77,109385.94 478667.77,109193.47 "/>
     <polygon id="253" class="fil76" points="507467.53,109321.79 507467.53,109514.26 478667.77,109514.26 478667.77,109321.79 "/>
     <polygon id="254" class="fil76" points="507467.53,109450.1 507467.53,109642.57 478667.77,109642.57 478667.77,109450.1 "/>
     <polygon id="255" class="fil77" points="507467.53,109578.42 507467.53,109770.9 478667.77,109770.9 478667.77,109578.42 "/>
     <polygon id="256" class="fil78" points="507467.53,109706.73 507467.53,109899.21 478667.77,109899.21 478667.77,109706.73 "/>
     <polygon id="257" class="fil77" points="507467.53,109835.06 507467.53,110027.53 478667.77,110027.53 478667.77,109835.06 "/>
     <polygon id="258" class="fil76" points="507467.53,109963.37 507467.53,109835.06 478667.77,109835.06 478667.77,109963.37 "/>
    </g>
   </g>
   <polygon class="fil79" points="197805.25,0 163830.04,48193.43 129854.73,0 "/>
   <polygon class="fil0" points="146752.59,70851.11 163656.75,97420.63 196162.8,46369.51 210859.89,46369.51 169174.87,109909.4 158164.68,109909.4 139526.84,81499.76 "/>
   <g>
    <g style="clip-path:url(#id1)">
     <polygon class="fil1" points="116479.65,79218.68 116479.65,79154.52 145279.43,79154.52 145279.43,79218.68 "/>
     <polygon id="1" class="fil1" points="116479.65,79218.68 116479.65,79026.21 145279.43,79026.21 145279.43,79218.68 "/>
     <polygon id="2" class="fil1" points="116479.65,79090.36 116479.65,78897.89 145279.43,78897.89 145279.43,79090.36 "/>
     <polygon id="3" class="fil2" points="116479.65,78962.05 116479.65,78769.57 145279.43,78769.57 145279.43,78962.05 "/>
     <polygon id="4" class="fil2" points="116479.65,78833.72 116479.65,78641.25 145279.43,78641.25 145279.43,78833.72 "/>
     <polygon id="5" class="fil2" points="116479.65,78705.41 116479.65,78512.94 145279.43,78512.94 145279.43,78705.41 "/>
     <polygon id="6" class="fil2" points="116479.65,78577.09 116479.65,78384.62 145279.43,78384.62 145279.43,78577.09 "/>
     <polygon id="7" class="fil3" points="116479.65,78448.78 116479.65,78256.3 145279.43,78256.3 145279.43,78448.78 "/>
     <polygon id="8" class="fil3" points="116479.65,78320.46 116479.65,78127.98 145279.43,78127.98 145279.43,78320.46 "/>
     <polygon id="9" class="fil3" points="116479.65,78192.14 116479.65,77999.67 145279.43,77999.67 145279.43,78192.14 "/>
     <polygon id="10" class="fil4" points="116479.65,78063.83 116479.65,77871.35 145279.43,77871.35 145279.43,78063.83 "/>
     <polygon id="11" class="fil4" points="116479.65,77935.51 116479.65,77743.03 145279.43,77743.03 145279.43,77935.51 "/>
     <polygon id="12" class="fil4" points="116479.65,77807.2 116479.65,77614.71 145279.43,77614.71 145279.43,77807.2 "/>
     <polygon id="13" class="fil5" points="116479.65,77678.87 116479.65,77486.4 145279.43,77486.4 145279.43,77678.87 "/>
     <polygon id="14" class="fil5" points="116479.65,77550.56 116479.65,77358.08 145279.43,77358.08 145279.43,77550.56 "/>
     <polygon id="15" class="fil5" points="116479.65,77422.24 116479.65,77229.77 145279.43,77229.77 145279.43,77422.24 "/>
     <polygon id="16" class="fil5" points="116479.65,77293.93 116479.65,77101.44 145279.43,77101.44 145279.43,77293.93 "/>
     <polygon id="17" class="fil6" points="116479.65,77165.6 116479.65,76973.13 145279.43,76973.13 145279.43,77165.6 "/>
     <polygon id="18" class="fil6" points="116479.65,77037.29 116479.65,76844.82 145279.43,76844.82 145279.43,77037.29 "/>
     <polygon id="19" class="fil6" points="116479.65,76908.97 116479.65,76716.5 145279.43,76716.5 145279.43,76908.97 "/>
     <polygon id="20" class="fil7" points="116479.65,76780.66 116479.65,76588.18 145279.43,76588.18 145279.43,76780.66 "/>
     <polygon id="21" class="fil7" points="116479.65,76652.34 116479.65,76459.86 145279.43,76459.86 145279.43,76652.34 "/>
     <polygon id="22" class="fil7" points="116479.65,76524.02 116479.65,76331.55 145279.43,76331.55 145279.43,76524.02 "/>
     <polygon id="23" class="fil8" points="116479.65,76395.7 116479.65,76203.23 145279.43,76203.23 145279.43,76395.7 "/>
     <polygon id="24" class="fil8" points="116479.65,76267.39 116479.65,76074.92 145279.43,76074.92 145279.43,76267.39 "/>
     <polygon id="25" class="fil8" points="116479.65,76139.07 116479.65,75946.59 145279.43,75946.59 145279.43,76139.07 "/>
     <polygon id="26" class="fil8" points="116479.65,76010.75 116479.65,75818.28 145279.43,75818.28 145279.43,76010.75 "/>
     <polygon id="27" class="fil9" points="116479.65,75882.43 116479.65,75689.96 145279.43,75689.96 145279.43,75882.43 "/>
     <polygon id="28" class="fil9" points="116479.65,75754.12 116479.65,75561.65 145279.43,75561.65 145279.43,75754.12 "/>
     <polygon id="29" class="fil9" points="116479.65,75625.81 116479.65,75433.32 145279.43,75433.32 145279.43,75625.81 "/>
     <polygon id="30" class="fil10" points="116479.65,75497.48 116479.65,75305.01 145279.43,75305.01 145279.43,75497.48 "/>
     <polygon id="31" class="fil10" points="116479.65,75369.17 116479.65,75176.69 145279.43,75176.69 145279.43,75369.17 "/>
     <polygon id="32" class="fil10" points="116479.65,75240.85 116479.65,75048.38 145279.43,75048.38 145279.43,75240.85 "/>
     <polygon id="33" class="fil11" points="116479.65,75112.54 116479.65,74920.05 145279.43,74920.05 145279.43,75112.54 "/>
     <polygon id="34" class="fil11" points="116479.65,74984.22 116479.65,74791.74 145279.43,74791.74 145279.43,74984.22 "/>
     <polygon id="35" class="fil11" points="116479.65,74855.9 116479.65,74663.42 145279.43,74663.42 145279.43,74855.9 "/>
     <polygon id="36" class="fil11" points="116479.65,74727.58 116479.65,74535.11 145279.43,74535.11 145279.43,74727.58 "/>
     <polygon id="37" class="fil12" points="116479.65,74599.27 116479.65,74406.8 145279.43,74406.8 145279.43,74599.27 "/>
     <polygon id="38" class="fil12" points="116479.65,74470.95 116479.65,74278.47 145279.43,74278.47 145279.43,74470.95 "/>
     <polygon id="39" class="fil12" points="116479.65,74342.63 116479.65,74150.16 145279.43,74150.16 145279.43,74342.63 "/>
     <polygon id="40" class="fil13" points="116479.65,74214.31 116479.65,74021.84 145279.43,74021.84 145279.43,74214.31 "/>
     <polygon id="41" class="fil13" points="116479.65,74086 116479.65,73893.53 145279.43,73893.53 145279.43,74086 "/>
     <polygon id="42" class="fil13" points="116479.65,73957.68 116479.65,73765.2 145279.43,73765.2 145279.43,73957.68 "/>
     <polygon id="43" class="fil14" points="116479.65,73829.36 116479.65,73636.89 145279.43,73636.89 145279.43,73829.36 "/>
     <polygon id="44" class="fil14" points="116479.65,73701.04 116479.65,73508.57 145279.43,73508.57 145279.43,73701.04 "/>
     <polygon id="45" class="fil14" points="116479.65,73572.73 116479.65,73380.26 145279.43,73380.26 145279.43,73572.73 "/>
     <polygon id="46" class="fil14" points="116479.65,73444.41 116479.65,73251.93 145279.43,73251.93 145279.43,73444.41 "/>
     <polygon id="47" class="fil15" points="116479.65,73316.1 116479.65,73123.62 145279.43,73123.62 145279.43,73316.1 "/>
     <polygon id="48" class="fil15" points="116479.65,73187.78 116479.65,72995.3 145279.43,72995.3 145279.43,73187.78 "/>
     <polygon id="49" class="fil15" points="116479.65,73059.46 116479.65,72866.99 145279.43,72866.99 145279.43,73059.46 "/>
     <polygon id="50" class="fil16" points="116479.65,72931.15 116479.65,72738.67 145279.43,72738.67 145279.43,72931.15 "/>
     <polygon id="51" class="fil16" points="116479.65,72802.83 116479.65,72610.35 145279.43,72610.35 145279.43,72802.83 "/>
     <polygon id="52" class="fil16" points="116479.65,72674.51 116479.65,72482.03 145279.43,72482.03 145279.43,72674.51 "/>
     <polygon id="53" class="fil16" points="116479.65,72546.19 116479.65,72353.72 145279.43,72353.72 145279.43,72546.19 "/>
     <polygon id="54" class="fil17" points="116479.65,72417.88 116479.65,72225.4 145279.43,72225.4 145279.43,72417.88 "/>
     <polygon id="55" class="fil17" points="116479.65,72289.56 116479.65,72097.08 145279.43,72097.08 145279.43,72289.56 "/>
     <polygon id="56" class="fil17" points="116479.65,72161.24 116479.65,71968.76 145279.43,71968.76 145279.43,72161.24 "/>
     <polygon id="57" class="fil18" points="116479.65,72032.92 116479.65,71840.45 145279.43,71840.45 145279.43,72032.92 "/>
     <polygon id="58" class="fil18" points="116479.65,71904.61 116479.65,71712.14 145279.43,71712.14 145279.43,71904.61 "/>
     <polygon id="59" class="fil18" points="116479.65,71776.29 116479.65,71583.81 145279.43,71583.81 145279.43,71776.29 "/>
     <polygon id="60" class="fil19" points="116479.65,71647.98 116479.65,71455.5 145279.43,71455.5 145279.43,71647.98 "/>
     <polygon id="61" class="fil19" points="116479.65,71519.65 116479.65,71327.18 145279.43,71327.18 145279.43,71519.65 "/>
     <polygon id="62" class="fil19" points="116479.65,71391.34 116479.65,71198.87 145279.43,71198.87 145279.43,71391.34 "/>
     <polygon id="63" class="fil19" points="116479.65,71263.02 116479.65,71070.55 145279.43,71070.55 145279.43,71263.02 "/>
     <polygon id="64" class="fil20" points="116479.65,71134.71 116479.65,70942.23 145279.43,70942.23 145279.43,71134.71 "/>
     <polygon id="65" class="fil20" points="116479.65,71006.38 116479.65,70813.91 145279.43,70813.91 145279.43,71006.38 "/>
     <polygon id="66" class="fil20" points="116479.65,70878.07 116479.65,70685.6 145279.43,70685.6 145279.43,70878.07 "/>
     <polygon id="67" class="fil21" points="116479.65,70749.75 116479.65,70557.28 145279.43,70557.28 145279.43,70749.75 "/>
     <polygon id="68" class="fil21" points="116479.65,70621.44 116479.65,70428.96 145279.43,70428.96 145279.43,70621.44 "/>
     <polygon id="69" class="fil21" points="116479.65,70493.12 116479.65,70300.64 145279.43,70300.64 145279.43,70493.12 "/>
     <polygon id="70" class="fil22" points="116479.65,70364.8 116479.65,70172.33 145279.43,70172.33 145279.43,70364.8 "/>
     <polygon id="71" class="fil22" points="116479.65,70236.49 116479.65,70044.01 145279.43,70044.01 145279.43,70236.49 "/>
     <polygon id="72" class="fil22" points="116479.65,70108.17 116479.65,69915.69 145279.43,69915.69 145279.43,70108.17 "/>
     <polygon id="73" class="fil22" points="116479.65,69979.86 116479.65,69787.37 145279.43,69787.37 145279.43,69979.86 "/>
     <polygon id="74" class="fil23" points="116479.65,69851.53 116479.65,69659.06 145279.43,69659.06 145279.43,69851.53 "/>
     <polygon id="75" class="fil23" points="116479.65,69723.22 116479.65,69530.74 145279.43,69530.74 145279.43,69723.22 "/>
     <polygon id="76" class="fil23" points="116479.65,69594.9 116479.65,69402.43 145279.43,69402.43 145279.43,69594.9 "/>
     <polygon id="77" class="fil24" points="116479.65,69466.59 116479.65,69274.11 145279.43,69274.11 145279.43,69466.59 "/>
     <polygon id="78" class="fil24" points="116479.65,69338.26 116479.65,69145.79 145279.43,69145.79 145279.43,69338.26 "/>
     <polygon id="79" class="fil24" points="116479.65,69209.95 116479.65,69017.48 145279.43,69017.48 145279.43,69209.95 "/>
     <polygon id="80" class="fil25" points="116479.65,69081.63 116479.65,68889.16 145279.43,68889.16 145279.43,69081.63 "/>
     <polygon id="81" class="fil25" points="116479.65,68953.32 116479.65,68760.84 145279.43,68760.84 145279.43,68953.32 "/>
     <polygon id="82" class="fil25" points="116479.65,68825 116479.65,68632.52 145279.43,68632.52 145279.43,68825 "/>
     <polygon id="83" class="fil25" points="116479.65,68696.68 116479.65,68504.21 145279.43,68504.21 145279.43,68696.68 "/>
     <polygon id="84" class="fil26" points="116479.65,68568.36 116479.65,68375.89 145279.43,68375.89 145279.43,68568.36 "/>
     <polygon id="85" class="fil26" points="116479.65,68440.05 116479.65,68247.57 145279.43,68247.57 145279.43,68440.05 "/>
     <polygon id="86" class="fil26" points="116479.65,68311.73 116479.65,68119.25 145279.43,68119.25 145279.43,68311.73 "/>
     <polygon id="87" class="fil27" points="116479.65,68183.41 116479.65,67990.94 145279.43,67990.94 145279.43,68183.41 "/>
     <polygon id="88" class="fil27" points="116479.65,68055.1 116479.65,67862.62 145279.43,67862.62 145279.43,68055.1 "/>
     <polygon id="89" class="fil27" points="116479.65,67926.78 116479.65,67734.31 145279.43,67734.31 145279.43,67926.78 "/>
     <polygon id="90" class="fil28" points="116479.65,67798.47 116479.65,67605.98 145279.43,67605.98 145279.43,67798.47 "/>
     <polygon id="91" class="fil28" points="116479.65,67670.14 116479.65,67477.67 145279.43,67477.67 145279.43,67670.14 "/>
     <polygon id="92" class="fil28" points="116479.65,67541.83 116479.65,67349.35 145279.43,67349.35 145279.43,67541.83 "/>
     <polygon id="93" class="fil28" points="116479.65,67413.51 116479.65,67221.04 145279.43,67221.04 145279.43,67413.51 "/>
     <polygon id="94" class="fil29" points="116479.65,67285.2 116479.65,67092.71 145279.43,67092.71 145279.43,67285.2 "/>
     <polygon id="95" class="fil29" points="116479.65,67156.88 116479.65,66964.4 145279.43,66964.4 145279.43,67156.88 "/>
     <polygon id="96" class="fil29" points="116479.65,67028.56 116479.65,66836.09 145279.43,66836.09 145279.43,67028.56 "/>
     <polygon id="97" class="fil30" points="116479.65,66900.24 116479.65,66707.77 145279.43,66707.77 145279.43,66900.24 "/>
     <polygon id="98" class="fil30" points="116479.65,66771.93 116479.65,66579.45 145279.43,66579.45 145279.43,66771.93 "/>
     <polygon id="99" class="fil30" points="116479.65,66643.61 116479.65,66451.13 145279.43,66451.13 145279.43,66643.61 "/>
     <polygon id="100" class="fil31" points="116479.65,66515.29 116479.65,66322.82 145279.43,66322.82 145279.43,66515.29 "/>
     <polygon id="101" class="fil31" points="116479.65,66386.97 116479.65,66194.5 145279.43,66194.5 145279.43,66386.97 "/>
     <polygon id="102" class="fil31" points="116479.65,66258.66 116479.65,66066.19 145279.43,66066.19 145279.43,66258.66 "/>
     <polygon id="103" class="fil31" points="116479.65,66130.34 116479.65,65937.86 145279.43,65937.86 145279.43,66130.34 "/>
     <polygon id="104" class="fil32" points="116479.65,66002.02 116479.65,65809.55 145279.43,65809.55 145279.43,66002.02 "/>
     <polygon id="105" class="fil32" points="116479.65,65873.7 116479.65,65681.23 145279.43,65681.23 145279.43,65873.7 "/>
     <polygon id="106" class="fil32" points="116479.65,65745.39 116479.65,65552.92 145279.43,65552.92 145279.43,65745.39 "/>
     <polygon id="107" class="fil33" points="116479.65,65617.08 116479.65,65424.59 145279.43,65424.59 145279.43,65617.08 "/>
     <polygon id="108" class="fil33" points="116479.65,65488.76 116479.65,65296.28 145279.43,65296.28 145279.43,65488.76 "/>
     <polygon id="109" class="fil33" points="116479.65,65360.44 116479.65,65167.96 145279.43,65167.96 145279.43,65360.44 "/>
     <polygon id="110" class="fil33" points="116479.65,65232.12 116479.65,65039.65 145279.43,65039.65 145279.43,65232.12 "/>
     <polygon id="111" class="fil34" points="116479.65,65103.81 116479.65,64911.33 145279.43,64911.33 145279.43,65103.81 "/>
     <polygon id="112" class="fil34" points="116479.65,64975.49 116479.65,64783.01 145279.43,64783.01 145279.43,64975.49 "/>
     <polygon id="113" class="fil34" points="116479.65,64847.17 116479.65,64654.69 145279.43,64654.69 145279.43,64847.17 "/>
     <polygon id="114" class="fil35" points="116479.65,64718.85 116479.65,64526.38 145279.43,64526.38 145279.43,64718.85 "/>
     <polygon id="115" class="fil35" points="116479.65,64590.54 116479.65,64398.06 145279.43,64398.06 145279.43,64590.54 "/>
     <polygon id="116" class="fil35" points="116479.65,64462.22 116479.65,64269.74 145279.43,64269.74 145279.43,64462.22 "/>
     <polygon id="117" class="fil36" points="116479.65,64333.9 116479.65,64141.43 145279.43,64141.43 145279.43,64333.9 "/>
     <polygon id="118" class="fil36" points="116479.65,64205.58 116479.65,64013.11 145279.43,64013.11 145279.43,64205.58 "/>
     <polygon id="119" class="fil36" points="116479.65,64077.27 116479.65,63884.8 145279.43,63884.8 145279.43,64077.27 "/>
     <polygon id="120" class="fil36" points="116479.65,63948.95 116479.65,63756.47 145279.43,63756.47 145279.43,63948.95 "/>
     <polygon id="121" class="fil37" points="116479.65,63820.64 116479.65,63628.16 145279.43,63628.16 145279.43,63820.64 "/>
     <polygon id="122" class="fil37" points="116479.65,63692.31 116479.65,63499.84 145279.43,63499.84 145279.43,63692.31 "/>
     <polygon id="123" class="fil37" points="116479.65,63564 116479.65,63371.53 145279.43,63371.53 145279.43,63564 "/>
     <polygon id="124" class="fil38" points="116479.65,63435.68 116479.65,63243.21 145279.43,63243.21 145279.43,63435.68 "/>
     <polygon id="125" class="fil38" points="116479.65,63307.37 116479.65,63114.89 145279.43,63114.89 145279.43,63307.37 "/>
     <polygon id="126" class="fil38" points="116479.65,63179.04 116479.65,62986.57 145279.43,62986.57 145279.43,63179.04 "/>
     <polygon id="127" class="fil39" points="116479.65,63050.73 116479.65,62858.26 145279.43,62858.26 145279.43,63050.73 "/>
     <polygon id="128" class="fil39" points="116479.65,62922.42 116479.65,62729.94 145279.43,62729.94 145279.43,62922.42 "/>
     <polygon id="129" class="fil39" points="116479.65,62794.1 116479.65,62601.62 145279.43,62601.62 145279.43,62794.1 "/>
     <polygon id="130" class="fil39" points="116479.65,62665.78 116479.65,62473.3 145279.43,62473.3 145279.43,62665.78 "/>
     <polygon id="131" class="fil40" points="116479.65,62537.46 116479.65,62344.99 145279.43,62344.99 145279.43,62537.46 "/>
     <polygon id="132" class="fil40" points="116479.65,62409.15 116479.65,62216.67 145279.43,62216.67 145279.43,62409.15 "/>
     <polygon id="133" class="fil40" points="116479.65,62280.83 116479.65,62088.35 145279.43,62088.35 145279.43,62280.83 "/>
     <polygon id="134" class="fil41" points="116479.65,62152.52 116479.65,61960.03 145279.43,61960.03 145279.43,62152.52 "/>
     <polygon id="135" class="fil41" points="116479.65,62024.19 116479.65,61831.72 145279.43,61831.72 145279.43,62024.19 "/>
     <polygon id="136" class="fil41" points="116479.65,61895.88 116479.65,61703.41 145279.43,61703.41 145279.43,61895.88 "/>
     <polygon id="137" class="fil42" points="116479.65,61767.56 116479.65,61575.09 145279.43,61575.09 145279.43,61767.56 "/>
     <polygon id="138" class="fil42" points="116479.65,61639.25 116479.65,61446.77 145279.43,61446.77 145279.43,61639.25 "/>
     <polygon id="139" class="fil42" points="116479.65,61510.92 116479.65,61318.45 145279.43,61318.45 145279.43,61510.92 "/>
     <polygon id="140" class="fil42" points="116479.65,61382.61 116479.65,61190.14 145279.43,61190.14 145279.43,61382.61 "/>
     <polygon id="141" class="fil43" points="116479.65,61254.29 116479.65,61061.82 145279.43,61061.82 145279.43,61254.29 "/>
     <polygon id="142" class="fil43" points="116479.65,61125.98 116479.65,60933.5 145279.43,60933.5 145279.43,61125.98 "/>
     <polygon id="143" class="fil43" points="116479.65,60997.65 116479.65,60805.18 145279.43,60805.18 145279.43,60997.65 "/>
     <polygon id="144" class="fil44" points="116479.65,60869.34 116479.65,60676.87 145279.43,60676.87 145279.43,60869.34 "/>
     <polygon id="145" class="fil44" points="116479.65,60741.02 116479.65,60548.55 145279.43,60548.55 145279.43,60741.02 "/>
     <polygon id="146" class="fil44" points="116479.65,60612.71 116479.65,60420.23 145279.43,60420.23 145279.43,60612.71 "/>
     <polygon id="147" class="fil45" points="116479.65,60484.4 116479.65,60291.91 145279.43,60291.91 145279.43,60484.4 "/>
     <polygon id="148" class="fil45" points="116479.65,60356.07 116479.65,60163.6 145279.43,60163.6 145279.43,60356.07 "/>
     <polygon id="149" class="fil45" points="116479.65,60227.76 116479.65,60035.28 145279.43,60035.28 145279.43,60227.76 "/>
     <polygon id="150" class="fil45" points="116479.65,60099.44 116479.65,59906.97 145279.43,59906.97 145279.43,60099.44 "/>
     <polygon id="151" class="fil46" points="116479.65,59971.13 116479.65,59778.64 145279.43,59778.64 145279.43,59971.13 "/>
     <polygon id="152" class="fil46" points="116479.65,59842.8 116479.65,59650.33 145279.43,59650.33 145279.43,59842.8 "/>
     <polygon id="153" class="fil46" points="116479.65,59714.49 116479.65,59522.01 145279.43,59522.01 145279.43,59714.49 "/>
     <polygon id="154" class="fil47" points="116479.65,59586.17 116479.65,59393.7 145279.43,59393.7 145279.43,59586.17 "/>
     <polygon id="155" class="fil47" points="116479.65,59457.86 116479.65,59265.38 145279.43,59265.38 145279.43,59457.86 "/>
     <polygon id="156" class="fil47" points="116479.65,59329.54 116479.65,59137.06 145279.43,59137.06 145279.43,59329.54 "/>
     <polygon id="157" class="fil47" points="116479.65,59201.22 116479.65,59008.75 145279.43,59008.75 145279.43,59201.22 "/>
     <polygon id="158" class="fil48" points="116479.65,59072.9 116479.65,58880.43 145279.43,58880.43 145279.43,59072.9 "/>
     <polygon id="159" class="fil48" points="116479.65,58944.59 116479.65,58752.11 145279.43,58752.11 145279.43,58944.59 "/>
     <polygon id="160" class="fil48" points="116479.65,58816.27 116479.65,58623.79 145279.43,58623.79 145279.43,58816.27 "/>
     <polygon id="161" class="fil49" points="116479.65,58687.95 116479.65,58495.48 145279.43,58495.48 145279.43,58687.95 "/>
     <polygon id="162" class="fil49" points="116479.65,58559.63 116479.65,58367.16 145279.43,58367.16 145279.43,58559.63 "/>
     <polygon id="163" class="fil49" points="116479.65,58431.32 116479.65,58238.85 145279.43,58238.85 145279.43,58431.32 "/>
     <polygon id="164" class="fil50" points="116479.65,58303 116479.65,58110.52 145279.43,58110.52 145279.43,58303 "/>
     <polygon id="165" class="fil50" points="116479.65,58174.68 116479.65,57982.21 145279.43,57982.21 145279.43,58174.68 "/>
     <polygon id="166" class="fil50" points="116479.65,58046.36 116479.65,57853.89 145279.43,57853.89 145279.43,58046.36 "/>
     <polygon id="167" class="fil50" points="116479.65,57918.05 116479.65,57725.58 145279.43,57725.58 145279.43,57918.05 "/>
     <polygon id="168" class="fil51" points="116479.65,57789.74 116479.65,57597.25 145279.43,57597.25 145279.43,57789.74 "/>
     <polygon id="169" class="fil51" points="116479.65,57661.42 116479.65,57468.94 145279.43,57468.94 145279.43,57661.42 "/>
     <polygon id="170" class="fil51" points="116479.65,57533.1 116479.65,57340.62 145279.43,57340.62 145279.43,57533.1 "/>
     <polygon id="171" class="fil52" points="116479.65,57404.78 116479.65,57212.31 145279.43,57212.31 145279.43,57404.78 "/>
     <polygon id="172" class="fil52" points="116479.65,57276.47 116479.65,57083.98 145279.43,57083.98 145279.43,57276.47 "/>
     <polygon id="173" class="fil52" points="116479.65,57148.15 116479.65,56955.67 145279.43,56955.67 145279.43,57148.15 "/>
     <polygon id="174" class="fil53" points="116479.65,57019.83 116479.65,56827.35 145279.43,56827.35 145279.43,57019.83 "/>
     <polygon id="175" class="fil53" points="116479.65,56891.51 116479.65,56699.04 145279.43,56699.04 145279.43,56891.51 "/>
     <polygon id="176" class="fil53" points="116479.65,56763.2 116479.65,56570.73 145279.43,56570.73 145279.43,56763.2 "/>
     <polygon id="177" class="fil53" points="116479.65,56634.88 116479.65,56442.4 145279.43,56442.4 145279.43,56634.88 "/>
     <polygon id="178" class="fil54" points="116479.65,56506.56 116479.65,56314.09 145279.43,56314.09 145279.43,56506.56 "/>
     <polygon id="179" class="fil54" points="116479.65,56378.24 116479.65,56185.77 145279.43,56185.77 145279.43,56378.24 "/>
     <polygon id="180" class="fil54" points="116479.65,56249.93 116479.65,56057.46 145279.43,56057.46 145279.43,56249.93 "/>
     <polygon id="181" class="fil55" points="116479.65,56121.61 116479.65,55929.13 145279.43,55929.13 145279.43,56121.61 "/>
     <polygon id="182" class="fil55" points="116479.65,55993.3 116479.65,55800.82 145279.43,55800.82 145279.43,55993.3 "/>
     <polygon id="183" class="fil55" points="116479.65,55864.97 116479.65,55672.5 145279.43,55672.5 145279.43,55864.97 "/>
     <polygon id="184" class="fil56" points="116479.65,55736.66 116479.65,55544.19 145279.43,55544.19 145279.43,55736.66 "/>
     <polygon id="185" class="fil56" points="116479.65,55608.34 116479.65,55415.86 145279.43,55415.86 145279.43,55608.34 "/>
     <polygon id="186" class="fil56" points="116479.65,55480.03 116479.65,55287.55 145279.43,55287.55 145279.43,55480.03 "/>
     <polygon id="187" class="fil56" points="116479.65,55351.71 116479.65,55159.23 145279.43,55159.23 145279.43,55351.71 "/>
     <polygon id="188" class="fil57" points="116479.65,55223.39 116479.65,55030.92 145279.43,55030.92 145279.43,55223.39 "/>
     <polygon id="189" class="fil57" points="116479.65,55095.08 116479.65,54902.6 145279.43,54902.6 145279.43,55095.08 "/>
     <polygon id="190" class="fil57" points="116479.65,54966.76 116479.65,54774.28 145279.43,54774.28 145279.43,54966.76 "/>
     <polygon id="191" class="fil58" points="116479.65,54838.44 116479.65,54645.96 145279.43,54645.96 145279.43,54838.44 "/>
     <polygon id="192" class="fil58" points="116479.65,54710.12 116479.65,54517.65 145279.43,54517.65 145279.43,54710.12 "/>
     <polygon id="193" class="fil58" points="116479.65,54581.81 116479.65,54389.33 145279.43,54389.33 145279.43,54581.81 "/>
     <polygon id="194" class="fil59" points="116479.65,54453.49 116479.65,54261.01 145279.43,54261.01 145279.43,54453.49 "/>
     <polygon id="195" class="fil59" points="116479.65,54325.18 116479.65,54132.7 145279.43,54132.7 145279.43,54325.18 "/>
     <polygon id="196" class="fil59" points="116479.65,54196.85 116479.65,54004.38 145279.43,54004.38 145279.43,54196.85 "/>
     <polygon id="197" class="fil59" points="116479.65,54068.54 116479.65,53876.07 145279.43,53876.07 145279.43,54068.54 "/>
     <polygon id="198" class="fil60" points="116479.65,53940.22 116479.65,53747.74 145279.43,53747.74 145279.43,53940.22 "/>
     <polygon id="199" class="fil60" points="116479.65,53811.91 116479.65,53619.43 145279.43,53619.43 145279.43,53811.91 "/>
     <polygon id="200" class="fil60" points="116479.65,53683.58 116479.65,53491.11 145279.43,53491.11 145279.43,53683.58 "/>
     <polygon id="201" class="fil61" points="116479.65,53555.27 116479.65,53362.8 145279.43,53362.8 145279.43,53555.27 "/>
     <polygon id="202" class="fil61" points="116479.65,53426.95 116479.65,53234.48 145279.43,53234.48 145279.43,53426.95 "/>
     <polygon id="203" class="fil61" points="116479.65,53298.64 116479.65,53106.16 145279.43,53106.16 145279.43,53298.64 "/>
     <polygon id="204" class="fil62" points="116479.65,53170.31 116479.65,52977.84 145279.43,52977.84 145279.43,53170.31 "/>
     <polygon id="205" class="fil62" points="116479.65,53042 116479.65,52849.53 145279.43,52849.53 145279.43,53042 "/>
     <polygon id="206" class="fil62" points="116479.65,52913.69 116479.65,52721.21 145279.43,52721.21 145279.43,52913.69 "/>
     <polygon id="207" class="fil62" points="116479.65,52785.37 116479.65,52592.89 145279.43,52592.89 145279.43,52785.37 "/>
     <polygon id="208" class="fil63" points="116479.65,52657.06 116479.65,52464.57 145279.43,52464.57 145279.43,52657.06 "/>
     <polygon id="209" class="fil63" points="116479.65,52528.73 116479.65,52336.26 145279.43,52336.26 145279.43,52528.73 "/>
     <polygon id="210" class="fil63" points="116479.65,52400.42 116479.65,52207.94 145279.43,52207.94 145279.43,52400.42 "/>
     <polygon id="211" class="fil64" points="116479.65,52272.1 116479.65,52079.63 145279.43,52079.63 145279.43,52272.1 "/>
     <polygon id="212" class="fil64" points="116479.65,52143.79 116479.65,51951.3 145279.43,51951.3 145279.43,52143.79 "/>
     <polygon id="213" class="fil64" points="116479.65,52015.46 116479.65,51822.99 145279.43,51822.99 145279.43,52015.46 "/>
     <polygon id="214" class="fil64" points="116479.65,51887.15 116479.65,51694.67 145279.43,51694.67 145279.43,51887.15 "/>
     <polygon id="215" class="fil65" points="116479.65,51758.83 116479.65,51566.36 145279.43,51566.36 145279.43,51758.83 "/>
     <polygon id="216" class="fil65" points="116479.65,51630.52 116479.65,51438.04 145279.43,51438.04 145279.43,51630.52 "/>
     <polygon id="217" class="fil65" points="116479.65,51502.19 116479.65,51309.72 145279.43,51309.72 145279.43,51502.19 "/>
     <polygon id="218" class="fil66" points="116479.65,51373.88 116479.65,51181.41 145279.43,51181.41 145279.43,51373.88 "/>
     <polygon id="219" class="fil66" points="116479.65,51245.56 116479.65,51053.09 145279.43,51053.09 145279.43,51245.56 "/>
     <polygon id="220" class="fil66" points="116479.65,51117.25 116479.65,50924.77 145279.43,50924.77 145279.43,51117.25 "/>
     <polygon id="221" class="fil67" points="116479.65,50988.93 116479.65,50796.45 145279.43,50796.45 145279.43,50988.93 "/>
     <polygon id="222" class="fil67" points="116479.65,50860.61 116479.65,50668.14 145279.43,50668.14 145279.43,50860.61 "/>
     <polygon id="223" class="fil67" points="116479.65,50732.29 116479.65,50539.82 145279.43,50539.82 145279.43,50732.29 "/>
     <polygon id="224" class="fil67" points="116479.65,50603.98 116479.65,50411.51 145279.43,50411.51 145279.43,50603.98 "/>
     <polygon id="225" class="fil68" points="116479.65,50475.66 116479.65,50283.18 145279.43,50283.18 145279.43,50475.66 "/>
     <polygon id="226" class="fil68" points="116479.65,50347.34 116479.65,50154.87 145279.43,50154.87 145279.43,50347.34 "/>
     <polygon id="227" class="fil68" points="116479.65,50219.03 116479.65,50026.55 145279.43,50026.55 145279.43,50219.03 "/>
     <polygon id="228" class="fil69" points="116479.65,50090.71 116479.65,49898.24 145279.43,49898.24 145279.43,50090.71 "/>
     <polygon id="229" class="fil69" points="116479.65,49962.4 116479.65,49769.91 145279.43,49769.91 145279.43,49962.4 "/>
     <polygon id="230" class="fil69" points="116479.65,49834.07 116479.65,49641.6 145279.43,49641.6 145279.43,49834.07 "/>
     <polygon id="231" class="fil70" points="116479.65,49705.76 116479.65,49513.28 145279.43,49513.28 145279.43,49705.76 "/>
     <polygon id="232" class="fil70" points="116479.65,49577.44 116479.65,49384.97 145279.43,49384.97 145279.43,49577.44 "/>
     <polygon id="233" class="fil70" points="116479.65,49449.13 116479.65,49256.64 145279.43,49256.64 145279.43,49449.13 "/>
     <polygon id="234" class="fil70" points="116479.65,49320.81 116479.65,49128.33 145279.43,49128.33 145279.43,49320.81 "/>
     <polygon id="235" class="fil71" points="116479.65,49192.49 116479.65,49000.02 145279.43,49000.02 145279.43,49192.49 "/>
     <polygon id="236" class="fil71" points="116479.65,49064.17 116479.65,48871.7 145279.43,48871.7 145279.43,49064.17 "/>
     <polygon id="237" class="fil71" points="116479.65,48935.86 116479.65,48743.39 145279.43,48743.39 145279.43,48935.86 "/>
     <polygon id="238" class="fil72" points="116479.65,48807.54 116479.65,48615.06 145279.43,48615.06 145279.43,48807.54 "/>
     <polygon id="239" class="fil72" points="116479.65,48679.22 116479.65,48486.75 145279.43,48486.75 145279.43,48679.22 "/>
     <polygon id="240" class="fil72" points="116479.65,48550.9 116479.65,48358.43 145279.43,48358.43 145279.43,48550.9 "/>
     <polygon id="241" class="fil73" points="116479.65,48422.59 116479.65,48230.12 145279.43,48230.12 145279.43,48422.59 "/>
     <polygon id="242" class="fil73" points="116479.65,48294.27 116479.65,48101.79 145279.43,48101.79 145279.43,48294.27 "/>
     <polygon id="243" class="fil73" points="116479.65,48165.95 116479.65,47973.48 145279.43,47973.48 145279.43,48165.95 "/>
     <polygon id="244" class="fil73" points="116479.65,48037.63 116479.65,47845.16 145279.43,47845.16 145279.43,48037.63 "/>
     <polygon id="245" class="fil74" points="116479.65,47909.32 116479.65,47716.85 145279.43,47716.85 145279.43,47909.32 "/>
     <polygon id="246" class="fil74" points="116479.65,47781.01 116479.65,47588.52 145279.43,47588.52 145279.43,47781.01 "/>
     <polygon id="247" class="fil74" points="116479.65,47652.69 116479.65,47460.21 145279.43,47460.21 145279.43,47652.69 "/>
     <polygon id="248" class="fil75" points="116479.65,47524.37 116479.65,47331.89 145279.43,47331.89 145279.43,47524.37 "/>
     <polygon id="249" class="fil75" points="116479.65,47396.05 116479.65,47203.58 145279.43,47203.58 145279.43,47396.05 "/>
     <polygon id="250" class="fil75" points="116479.65,47267.74 116479.65,47075.26 145279.43,47075.26 145279.43,47267.74 "/>
     <polygon id="251" class="fil76" points="116479.65,47139.42 116479.65,46946.94 145279.43,46946.94 145279.43,47139.42 "/>
     <polygon id="252" class="fil76" points="116479.65,47011.1 116479.65,46818.62 145279.43,46818.62 145279.43,47011.1 "/>
     <polygon id="253" class="fil76" points="116479.65,46882.78 116479.65,46690.31 145279.43,46690.31 145279.43,46882.78 "/>
     <polygon id="254" class="fil76" points="116479.65,46754.47 116479.65,46562 145279.43,46562 145279.43,46754.47 "/>
     <polygon id="255" class="fil77" points="116479.65,46626.15 116479.65,46433.67 145279.43,46433.67 145279.43,46626.15 "/>
     <polygon id="256" class="fil78" points="116479.65,46497.84 116479.65,46305.36 145279.43,46305.36 145279.43,46497.84 "/>
     <polygon id="257" class="fil77" points="116479.65,46369.51 116479.65,46177.04 145279.43,46177.04 145279.43,46369.51 "/>
     <polygon id="258" class="fil76" points="116479.65,46241.2 116479.65,46369.51 145279.43,46369.51 145279.43,46241.2 "/>
    </g>
   </g>
   <polygon class="fil0" points="292327.54,46369.51 376299.3,46369.51 376299.3,53424.35 341360.94,53424.35 341360.94,109909.4 327265.26,109909.4 327265.26,53424.35 292327.54,53424.35 "/>
   <polygon class="fil0" points="392184.27,46369.51 406279.64,46369.51 406279.64,102839 462662.07,102839 462662.07,109909.4 392184.27,109909.4 "/>
   <path class="fil0" d="M588987.92 46369.51l49034.05 0c8185.52,0 14932.5,1601.2 20241.26,4835.39 4890.02,2964.46 7348.7,6927.76 7348.7,11889.9 0,3963.3 -2249.32,7292.47 -6746.99,10019.29 -2432.3,1490.01 -5518.11,2599.73 -9179.28,3345.05 4890.34,998.54 8786.61,2362.1 11637.01,4090.07 4916.39,2980.34 7348.7,6690.11 7348.7,11144.9 0,5453.31 -3059.44,10035.16 -9179.29,13744.63 -4916.08,2980.34 -12264.79,4470.67 -22071.84,4470.67l-48432.32 0 0 -63539.88zm14121.74 7054.84l0 19689.73 33081.72 0c4079.26,0 7557.75,-856.2 10434.21,-2600.06 3269.12,-1981.49 4890.66,-4581.54 4890.66,-7799.83 0,-2726.81 -1621.53,-5073.02 -4890.66,-7054.51 -2457.73,-1490.33 -5517.81,-2235.33 -9205.34,-2235.33l-34310.58 0zm0 26760.14l0 22654.51 31251.14 0c6119.52,0 10826.88,-982.96 14095.37,-2964.77 3687.54,-2235.33 5518.12,-4962.14 5518.12,-8180.12 0,-3471.82 -1647.59,-6182.75 -4916.4,-8164.56 -3661.17,-2235.33 -8577.57,-3345.05 -14697.09,-3345.05l-31251.14 0z"/>
   <polygon class="fil0" points="226744.86,46369.51 274215.81,46369.51 274215.81,53424.04 236684.72,53424.04 236684.72,73113.77 271620.53,73113.77 271620.53,80184.17 236684.72,80184.17 236684.72,102838.68 276369.82,102838.68 276369.82,109909.08 226744.86,109909.08 "/>
   <polygon class="fil0" points="45821.79,953.12 -0,953.12 101394.57,153652.18 147216.36,153652.18 "/>
   <path class="fil80" d="M218632.8 133764.17l0 -1223.78 4504.92 0 0 3865.76c-691.49,539.14 -1405.03,947.06 -2140.94,1219.01 -735.91,271.95 -1491.91,407.92 -2265.1,407.92 -1045.51,0 -1994.72,-218.57 -2849.61,-657.96 -852.28,-437.15 -1499.04,-1073.18 -1932.48,-1901.43 -436.36,-830.46 -654.22,-1758.14 -654.22,-2780.5 0,-1015.05 215.59,-1962.11 649.03,-2843.41 433.76,-879.08 1055.56,-1532.26 1868.3,-1957.35 812.74,-427.31 1749.65,-641.13 2810.07,-641.13 768.32,0 1464.36,121.36 2086.47,366.63 622.11,245.27 1110.02,585.2 1462.09,1020.14 354.34,436.84 621.79,1007.75 805.28,1709.54l-1271.14 339.94c-161.12,-529.6 -359.52,-947.06 -594.89,-1253.01 -237.95,-303.72 -574.78,-546.45 -1016,-728.48 -438.63,-182.36 -926.54,-274.5 -1464.36,-274.5 -641.89,0 -1196.91,97.22 -1667.62,289.11 -468.45,191.57 -844.83,444.14 -1134.98,759.94 -287.23,313.25 -510.28,657.96 -668.8,1031.88 -270.37,648.43 -406.54,1348 -406.54,2103.17 0,932.45 163.39,1711.76 488.23,2340.81 327.1,626.51 802.68,1092.89 1424.8,1396.29 624.39,303.41 1286.06,456.53 1987.28,456.53 609.47,0 1204.35,-116.59 1784,-347.24 579.97,-233.19 1018.6,-478.46 1318.47,-743.1l0 -1954.8 -3122.26 0zm10744.24 4094.19l0 -10431.98 7686.49 0 0 1223.78 -6274 0 0 3205.27 5872.66 0 0 1224.09 -5872.66 0 0 3555.06 6526.87 0 0 1223.78 -7939.36 0zm14047.37 0l0 -10431.98 4717.91 0c949.22,0 1670.21,94.67 2163.3,281.48 493.1,187.12 886.99,517.21 1181.99,990.9 295.01,473.37 441.22,997.89 441.22,1571.02 0,740.55 -245.4,1364.84 -733.64,1872.2 -488.22,507.69 -1241.31,828.25 -2262.18,966.44 374.11,175.06 656.48,349.79 849.7,519.76 411.39,369.17 800.42,833 1164.81,1388.97l1841.06 2841.19 -1759.36 0 -1407.63 -2170.84c-408.8,-629.04 -748.23,-1107.5 -1013.4,-1440.13 -267.46,-332.63 -505.41,-563.28 -716.13,-697.03 -208.13,-130.89 -423.71,-223.34 -641.57,-276.72 -158.85,-31.45 -418.85,-48.61 -783.24,-48.61l-1630.34 0 0 4633.33 -1412.49 0zm1412.49 -5827.88l3023.06 0c644.16,0 1144.7,-65.77 1506.5,-196.97 361.79,-128.67 637.02,-337.4 822.78,-626.51 188.35,-286.24 282.37,-597.27 282.37,-934.67 0,-493.07 -180.9,-900.99 -544.96,-1219.01 -364.39,-318.33 -939.17,-475.91 -1724.68,-475.91l-3365.07 0 0 3453.07zm13455.09 5827.88l0 -10431.98 7686.49 0 0 1223.78 -6274 0 0 3205.27 5872.66 0 0 1224.09 -5872.66 0 0 3555.06 6526.87 0 0 1223.78 -7939.36 0zm14002.64 0l0 -10431.98 1447.18 0 5585.43 8188.06 0 -8188.06 1352.84 0 0 10431.98 -1447.17 0 -5585.11 -8188.39 0 8188.39 -1353.16 0zm22464.92 -3659.58l1412.49 349.79c-294.69,1133.87 -825.06,1996.1 -1590.8,2591.16 -765.73,594.74 -1702.31,893.37 -2810.06,893.37 -1144.71,0 -2076.42,-228.11 -2795.15,-687.18 -718.4,-456.54 -1263.69,-1119.26 -1637.8,-1986.26 -374.11,-869.54 -562.46,-1799.45 -562.46,-2795.12 0,-1085.27 210.72,-2032.32 634.43,-2841.19 423.71,-808.54 1025.73,-1422.97 1806.37,-1842.97 780.64,-420.01 1640.39,-629.05 2576.97,-629.05 1065.6,0 1960.03,264.64 2683.63,796.48 726.18,531.82 1231.58,1277.46 1516.54,2239.15l-1382.66 320.56c-245.4,-757.71 -604.61,-1311.46 -1073.06,-1656.17 -468.13,-347.25 -1058.15,-519.76 -1769.09,-519.76 -815.33,0 -1499.37,191.89 -2046.92,575.36 -547.56,383.78 -933.99,900.99 -1154.76,1546.87 -223.03,648.42 -334.55,1316.23 -334.55,2003.42 0,886.38 131.61,1660.92 394.2,2321.43 262.59,663.04 671.4,1156.11 1226.41,1483.97 555.01,327.55 1154.75,490.53 1801.51,490.53 788.1,0 1452.04,-223.67 1997.32,-667.81 544.96,-447.01 914.21,-1107.5 1107.43,-1986.58zm7523.1 3659.58l0 -10431.98 1412.49 0 0 10431.98 -1412.49 0zm6856.57 0l4083.79 -10431.98 1548.65 0 4333.75 10431.98 -1603.12 0 -1231.58 -3161.75 -4482.55 0 -1154.76 3161.75 -1494.18 0zm3062.93 -4283.54l3627.66 0 -1110.35 -2892.34c-334.55,-878.76 -587.1,-1605.02 -763.13,-2178.15 -146.21,679.88 -342.02,1347.68 -587.1,2008.17l-1167.07 3062.31zm12122.02 4283.54l0 -10431.98 2111.11 0 2517.64 7384.29c232.77,687.49 401.35,1202.17 508.01,1544.65 121.25,-379.02 312.19,-937.54 569.93,-1673.32l2562.05 -7255.62 1885.8 0 0 10431.98 -1353.16 0 0 -8727.52 -3107.34 8727.52 -1268.54 0 -3072.66 -8887.64 0 8887.64 -1352.84 0zm16574.75 0l0 -10431.98 7686.49 0 0 1223.78 -6274 0 0 3205.27 5872.65 0 0 1224.09 -5872.65 0 0 3555.06 6526.87 0 0 1223.78 -7939.36 0zm14002.64 0l0 -10431.98 1447.17 0 5585.44 8188.06 0 -8188.06 1352.84 0 0 10431.98 -1447.18 0 -5585.1 -8188.39 0 8188.39 -1353.16 0zm17588.48 0l0 -9208.2 -3508.69 0 0 -1223.78 8429.86 0 0 1223.78 -3508.68 0 0 9208.2 -1412.49 0zm9807.65 -5077.79c0,-1728.92 475.9,-3083.91 1424.8,-4062.42 949.22,-978.51 2173.36,-1466.82 3675,-1466.82 983.59,0 1868.3,230.65 2658.67,689.73 788.09,459.07 1390.11,1099.87 1804.1,1923.35 413.66,820.61 621.79,1753.07 621.79,2794.8 0,1056.35 -218.18,2003.42 -654.21,2836.42 -436.03,835.23 -1052.96,1466.81 -1850.79,1894.13 -800.41,429.85 -1662.76,643.34 -2587.01,643.34 -1003.69,0 -1898.12,-237.95 -2688.49,-711.32 -788.1,-473.69 -1387.84,-1119.57 -1794.05,-1940.2 -406.54,-818.38 -609.79,-1685.39 -609.79,-2601zm1457.22 24.46c0,1255.55 344.29,2243.59 1033.19,2965.09 688.89,721.18 1553.82,1083.04 2594.47,1083.04 1060.42,0 1930.22,-364.41 2616.52,-1092.89 684.04,-728.48 1026.05,-1762.91 1026.05,-3103.29 0,-847.62 -146.2,-1588.18 -438.62,-2219.77 -292.42,-631.26 -721,-1121.79 -1283.46,-1469.04 -565.06,-347.24 -1196.9,-521.97 -1898.12,-521.97 -996.23,0 -1853.7,335.17 -2572.1,1005.2 -718.73,670.35 -1077.92,1787.37 -1077.92,3353.64zm22871.44 5053.33l0 -10431.98 1412.49 0 0 9208.2 5233.36 0 0 1223.78 -6645.85 0zm11291.78 0l4083.79 -10431.98 1548.65 0 4333.74 10431.98 -1603.11 0 -1231.59 -3161.75 -4482.55 0 -1154.75 3161.75 -1494.18 0zm3062.92 -4283.54l3627.67 0 -1110.35 -2892.34c-334.56,-878.76 -587.1,-1605.02 -763.13,-2178.15 -146.21,679.88 -342.03,1347.68 -587.1,2008.17l-1167.08 3062.31zm12092.21 4283.54l0 -10431.98 3994.32 0c812.74,0 1464.36,104.21 1957.77,315.47 490.49,211.27 874.66,536.59 1152.16,976.29 279.77,437.15 418.85,895.91 418.85,1376.9 0,444.15 -124.16,864.47 -369.25,1257.78 -245.41,393.31 -617.26,711.65 -1115.21,954.37 644.17,184.58 1139.84,500.37 1484.46,947.06 346.88,444.46 520.33,971.21 520.33,1578.33 0,490.53 -106.66,944.84 -317.39,1364.84 -210.39,420 -470.72,743.1 -780.32,971.21 -309.92,225.89 -698.94,398.4 -1164.8,514.99 -468.13,116.59 -1040.64,174.73 -1719.49,174.73l-4061.42 0zm1412.49 -6046.46l2301.73 0c624.71,0 1073.06,-41.29 1343.11,-121.35 359.52,-104.52 629.57,-279.26 810.46,-522.3 180.9,-242.73 272.32,-546.45 272.32,-913.06 0,-347.25 -83.96,-653.2 -255.13,-915.29 -168.59,-264.96 -411.4,-447.01 -725.86,-544.22 -314.78,-96.89 -854.88,-145.5 -1618.34,-145.5l-2128.29 0 0 3161.74zm0 4822.68l2651.2 0c456.14,0 775.78,-17.16 961.54,-51.15 322.24,-55.91 594.56,-150.59 812.73,-284.02 218.19,-133.75 396.48,-327.87 537.83,-582.98 141.02,-254.8 210.39,-548.67 210.39,-881.3 0,-391.09 -101.47,-728.49 -307.33,-1017.6 -202.94,-288.79 -485.63,-490.52 -847.43,-607.12 -359.21,-116.6 -879.52,-174.74 -1556.1,-174.74l-2462.85 0 0 3598.9zm12263.05 -3854.01c0,-1728.92 475.9,-3083.91 1424.8,-4062.42 949.22,-978.51 2173.36,-1466.82 3675,-1466.82 983.59,0 1868.3,230.65 2658.67,689.73 788.09,459.07 1390.11,1099.87 1804.1,1923.35 413.66,820.61 621.79,1753.07 621.79,2794.8 0,1056.35 -218.18,2003.42 -654.21,2836.42 -436.03,835.23 -1052.96,1466.81 -1850.79,1894.13 -800.41,429.85 -1662.76,643.34 -2587.01,643.34 -1003.69,0 -1898.12,-237.95 -2688.49,-711.32 -788.1,-473.69 -1387.84,-1119.57 -1794.05,-1940.2 -406.54,-818.38 -609.79,-1685.39 -609.79,-2601zm1457.22 24.46c0,1255.55 344.29,2243.59 1033.19,2965.09 688.89,721.18 1553.83,1083.04 2594.47,1083.04 1060.43,0 1930.22,-364.41 2616.52,-1092.89 684.04,-728.48 1026.05,-1762.91 1026.05,-3103.29 0,-847.62 -146.2,-1588.18 -438.62,-2219.77 -292.42,-631.26 -721,-1121.79 -1283.46,-1469.04 -565.06,-347.24 -1196.9,-521.97 -1898.12,-521.97 -996.23,0 -1853.7,335.17 -2572.1,1005.2 -718.73,670.35 -1077.92,1787.37 -1077.92,3353.64zm14698.99 5053.33l0 -10431.98 4717.91 0c949.22,0 1670.21,94.67 2163.3,281.48 493.09,187.12 886.98,517.21 1181.99,990.9 295.01,473.37 441.22,997.89 441.22,1571.02 0,740.55 -245.4,1364.84 -733.64,1872.2 -488.22,507.69 -1241.31,828.25 -2262.18,966.44 374.11,175.06 656.48,349.79 849.7,519.76 411.39,369.17 800.42,833 1164.81,1388.97l1841.06 2841.19 -1759.36 0 -1407.63 -2170.84c-408.8,-629.04 -748.23,-1107.5 -1013.4,-1440.13 -267.46,-332.63 -505.41,-563.28 -716.13,-697.03 -208.13,-130.89 -423.71,-223.34 -641.57,-276.72 -158.85,-31.45 -418.85,-48.61 -783.24,-48.61l-1630.34 0 0 4633.33 -1412.49 0zm1412.49 -5827.88l3023.06 0c644.16,0 1144.7,-65.77 1506.49,-196.97 361.79,-128.67 637.03,-337.4 822.79,-626.51 188.35,-286.24 282.37,-597.27 282.37,-934.67 0,-493.07 -180.9,-900.99 -544.96,-1219.01 -364.39,-318.33 -939.17,-475.91 -1724.68,-475.91l-3365.07 0 0 3453.07zm12258.18 5827.88l4083.8 -10431.98 1548.64 0 4333.75 10431.98 -1603.12 0 -1231.58 -3161.75 -4482.55 0 -1154.76 3161.75 -1494.18 0zm3062.93 -4283.54l3627.66 0 -1110.35 -2892.34c-334.55,-878.76 -587.1,-1605.02 -763.13,-2178.15 -146.21,679.88 -342.02,1347.68 -587.1,2008.17l-1167.07 3062.31zm13754.95 4283.54l0 -9208.2 -3508.68 0 0 -1223.78 8429.86 0 0 1223.78 -3508.69 0 0 9208.2 -1412.49 0zm10075.11 -5077.79c0,-1728.92 475.91,-3083.91 1424.81,-4062.42 949.22,-978.51 2173.35,-1466.82 3674.99,-1466.82 983.59,0 1868.3,230.65 2658.67,689.73 788.1,459.07 1390.11,1099.87 1804.1,1923.35 413.66,820.61 621.8,1753.07 621.8,2794.8 0,1056.35 -218.19,2003.42 -654.22,2836.42 -436.02,835.23 -1052.95,1466.81 -1850.78,1894.13 -800.42,429.85 -1662.76,643.34 -2587.02,643.34 -1003.68,0 -1898.12,-237.95 -2688.48,-711.32 -788.1,-473.69 -1387.85,-1119.57 -1794.06,-1940.2 -406.53,-818.38 -609.79,-1685.39 -609.79,-2601zm1457.22 24.46c0,1255.55 344.29,2243.59 1033.19,2965.09 688.9,721.18 1553.83,1083.04 2594.48,1083.04 1060.42,0 1930.22,-364.41 2616.52,-1092.89 684.04,-728.48 1026.05,-1762.91 1026.05,-3103.29 0,-847.62 -146.21,-1588.18 -438.63,-2219.77 -292.42,-631.26 -720.99,-1121.79 -1283.46,-1469.04 -565.05,-347.24 -1196.9,-521.97 -1898.11,-521.97 -996.24,0 -1853.7,335.17 -2572.1,1005.2 -718.73,670.35 -1077.93,1787.37 -1077.93,3353.64zm2557.2 -6019.77l951.49 -1996.11 1724.68 0 -1590.8 1996.11 -1085.38 0zm12141.81 11073.09l0 -10431.98 4717.9 0c949.22,0 1670.22,94.67 2163.31,281.48 493.09,187.12 886.98,517.21 1181.99,990.9 295,473.37 441.22,997.89 441.22,1571.02 0,740.55 -245.41,1364.84 -733.64,1872.2 -488.23,507.69 -1241.32,828.25 -2262.18,966.44 374.11,175.06 656.48,349.79 849.7,519.76 411.39,369.17 800.41,833 1164.8,1388.97l1841.07 2841.19 -1759.37 0 -1407.62 -2170.84c-408.81,-629.04 -748.23,-1107.5 -1013.41,-1440.13 -267.46,-332.63 -505.41,-563.28 -716.13,-697.03 -208.12,-130.89 -423.71,-223.34 -641.57,-276.72 -158.85,-31.45 -418.85,-48.61 -783.24,-48.61l-1630.33 0 0 4633.33 -1412.49 0zm1412.49 -5827.88l3023.05 0c644.16,0 1144.71,-65.77 1506.5,-196.97 361.79,-128.67 637.02,-337.4 822.78,-626.51 188.35,-286.24 282.37,-597.27 282.37,-934.67 0,-493.07 -180.9,-900.99 -544.96,-1219.01 -364.39,-318.33 -939.17,-475.91 -1724.68,-475.91l-3365.06 0 0 3453.07zm13663.22 5827.88l0 -10431.98 1412.48 0 0 10431.98 -1412.48 0zm7592.47 -5077.79c0,-1728.92 475.91,-3083.91 1424.81,-4062.42 949.22,-978.51 2173.35,-1466.82 3674.99,-1466.82 983.59,0 1868.3,230.65 2658.67,689.73 788.1,459.07 1390.11,1099.87 1804.1,1923.35 413.66,820.61 621.8,1753.07 621.8,2794.8 0,1056.35 -218.19,2003.42 -654.22,2836.42 -436.02,835.23 -1052.95,1466.81 -1850.78,1894.13 -800.42,429.85 -1662.77,643.34 -2587.02,643.34 -1003.68,0 -1898.12,-237.95 -2688.49,-711.32 -788.09,-473.69 -1387.84,-1119.57 -1794.05,-1940.2 -406.53,-818.38 -609.79,-1685.39 -609.79,-2601zm1457.22 24.46c0,1255.55 344.29,2243.59 1033.19,2965.09 688.9,721.18 1553.83,1083.04 2594.48,1083.04 1060.42,0 1930.22,-364.41 2616.52,-1092.89 684.04,-728.48 1026.05,-1762.91 1026.05,-3103.29 0,-847.62 -146.21,-1588.18 -438.63,-2219.77 -292.42,-631.26 -720.99,-1121.79 -1283.46,-1469.04 -565.05,-347.24 -1196.9,-521.97 -1898.11,-521.97 -996.24,0 -1853.71,335.17 -2572.1,1005.2 -718.73,670.35 -1077.93,1787.37 -1077.93,3353.64zm25963.88 5053.33l-4113.29 -10431.98 1526.27 0 2765.32 7581.26c220.77,606.8 408.81,1175.17 557.61,1707 163.72,-570.59 354.34,-1138.95 572.51,-1707l2869.39 -7581.26 1437.13 0 -4150.58 10431.98 -1464.36 0zm11044.1 0l0 -10431.98 7686.5 0 0 1223.78 -6274.01 0 0 3205.27 5872.66 0 0 1224.09 -5872.66 0 0 3555.06 6526.87 0 0 1223.78 -7939.36 0zm16723.55 0l0 -9208.2 -3508.68 0 0 -1223.78 8429.85 0 0 1223.78 -3508.68 0 0 9208.2 -1412.49 0zm10536.1 0l0 -10431.98 7686.49 0 0 1223.78 -6274 0 0 3205.27 5872.66 0 0 1224.09 -5872.66 0 0 3555.06 6526.87 0 0 1223.78 -7939.36 0zm14047.38 0l0 -10431.98 4717.9 0c949.22,0 1670.21,94.67 2163.31,281.48 493.09,187.12 886.98,517.21 1181.98,990.9 295.01,473.37 441.22,997.89 441.22,1571.02 0,740.55 -245.4,1364.84 -733.64,1872.2 -488.22,507.69 -1241.31,828.25 -2262.18,966.44 374.11,175.06 656.48,349.79 849.7,519.76 411.4,369.17 800.42,833 1164.81,1388.97l1841.06 2841.19 -1759.36 0 -1407.63 -2170.84c-408.8,-629.04 -748.23,-1107.5 -1013.4,-1440.13 -267.46,-332.63 -505.41,-563.28 -716.13,-697.03 -208.13,-130.89 -423.71,-223.34 -641.57,-276.72 -158.85,-31.45 -418.85,-48.61 -783.24,-48.61l-1630.34 0 0 4633.33 -1412.48 0zm1412.48 -5827.88l3023.06 0c644.16,0 1144.7,-65.77 1506.5,-196.97 361.79,-128.67 637.02,-337.4 822.78,-626.51 188.35,-286.24 282.37,-597.27 282.37,-934.67 0,-493.07 -180.9,-900.99 -544.96,-1219.01 -364.39,-318.33 -939.17,-475.91 -1724.68,-475.91l-3365.07 0 0 3453.07zm13663.22 5827.88l0 -10431.98 1412.49 0 0 10431.98 -1412.49 0zm8008.74 0l0 -10431.98 1447.17 0 5585.43 8188.06 0 -8188.06 1352.84 0 0 10431.98 -1447.17 0 -5585.11 -8188.39 0 8188.39 -1353.15 0zm13715.4 0l4083.79 -10431.98 1548.65 0 4333.74 10431.98 -1603.11 0 -1231.59 -3161.75 -4482.54 0 -1154.76 3161.75 -1494.18 0zm3062.92 -4283.54l3627.67 0 -1110.35 -2892.34c-334.56,-878.76 -587.1,-1605.02 -763.13,-2178.15 -146.21,679.88 -342.02,1347.68 -587.1,2008.17l-1167.08 3062.31zm676.26 -6789.55l951.48 -1996.11 1724.68 0 -1590.79 1996.11 -1085.38 0zm11505.09 11073.09l0 -10431.98 4717.91 0c949.22,0 1670.21,94.67 2163.3,281.48 493.09,187.12 886.98,517.21 1181.99,990.9 295.01,473.37 441.22,997.89 441.22,1571.02 0,740.55 -245.4,1364.84 -733.64,1872.2 -488.22,507.69 -1241.31,828.25 -2262.18,966.44 374.11,175.06 656.48,349.79 849.7,519.76 411.39,369.17 800.42,833 1164.81,1388.97l1841.06 2841.19 -1759.36 0 -1407.63 -2170.84c-408.8,-629.04 -748.23,-1107.5 -1013.4,-1440.13 -267.46,-332.63 -505.41,-563.28 -716.13,-697.03 -208.13,-130.89 -423.71,-223.34 -641.57,-276.72 -158.85,-31.45 -418.85,-48.61 -783.24,-48.61l-1630.34 0 0 4633.33 -1412.49 0zm1412.49 -5827.88l3023.06 0c644.16,0 1144.7,-65.77 1506.49,-196.97 361.79,-128.67 637.03,-337.4 822.79,-626.51 188.35,-286.24 282.37,-597.27 282.37,-934.67 0,-493.07 -180.9,-900.99 -544.96,-1219.01 -364.39,-318.33 -939.17,-475.91 -1724.68,-475.91l-3365.07 0 0 3453.07zm13663.22 5827.88l0 -10431.98 1412.49 0 0 10431.98 -1412.49 0zm7592.48 -5077.79c0,-1728.92 475.9,-3083.91 1424.8,-4062.42 949.22,-978.51 2173.36,-1466.82 3675,-1466.82 983.59,0 1868.3,230.65 2658.67,689.73 788.09,459.07 1390.11,1099.87 1804.1,1923.35 413.66,820.61 621.79,1753.07 621.79,2794.8 0,1056.35 -218.18,2003.42 -654.21,2836.42 -436.03,835.23 -1052.96,1466.81 -1850.79,1894.13 -800.41,429.85 -1662.76,643.34 -2587.01,643.34 -1003.69,0 -1898.12,-237.95 -2688.49,-711.32 -788.1,-473.69 -1387.84,-1119.57 -1794.05,-1940.2 -406.54,-818.38 -609.79,-1685.39 -609.79,-2601zm1457.22 24.46c0,1255.55 344.29,2243.59 1033.19,2965.09 688.89,721.18 1553.83,1083.04 2594.47,1083.04 1060.42,0 1930.22,-364.41 2616.52,-1092.89 684.04,-728.48 1026.05,-1762.91 1026.05,-3103.29 0,-847.62 -146.2,-1588.18 -438.62,-2219.77 -292.42,-631.26 -721,-1121.79 -1283.46,-1469.04 -565.06,-347.24 -1196.9,-521.97 -1898.12,-521.97 -996.23,0 -1853.7,335.17 -2572.1,1005.2 -718.73,670.35 -1077.92,1787.37 -1077.92,3353.64z"/>
   <path class="fil0" d="M684912.53 89131.39l11883.36 -686.95c556.36,3091.26 1869.32,5624.31 3938.79,7613.54 2069.56,1974.93 5273.98,3577.87 9613.34,4808.64 4339.47,1216.37 9235.2,1831.8 14665.04,1831.8 4828.82,0 9079.23,-458 12773.3,-1388.2 3694.06,-930.2 6431.27,-2203.87 8233.67,-3821.12 1802.61,-1617.15 2714.88,-3377.42 2714.88,-5266.44 0,-1917.72 -867.8,-3592.17 -2603.59,-5037.59 -1735.79,-1431.11 -4606.43,-2633.27 -8612.02,-3620.78 -2559.11,-629.64 -8233.78,-1631.45 -17023.81,-2991.05 -8789.94,-1359.5 -14931.81,-2633.16 -18447.86,-3835.32 -4561.95,-1545.64 -7944.38,-3463.34 -10169.71,-5738.84 -2247.57,-2275.49 -3360.19,-4837.14 -3360.19,-7656.46 0,-3119.87 1379.68,-6025 4116.79,-8715.57 2737.21,-2704.78 6720.47,-4751.32 11994.45,-6153.83 5251.74,-1402.5 11104.41,-2103.75 17535.58,-2103.75 7076.49,0 13329.75,729.95 18737.26,2203.97 5407.52,1459.72 9568.98,3620.78 12484.09,6483 2915.22,2847.91 4472.8,6082.21 4695.39,9688.69l-12150.22 601.03c-645.31,-3878.33 -2848.41,-6812.17 -6609.28,-8787.09 -3760.78,-1989.23 -9324.05,-2976.75 -16667.69,-2976.75 -7655.09,0 -13240.6,901.7 -16734.42,2704.89 -3493.81,1803.18 -5251.74,3978.46 -5251.74,6525.9 0,2203.88 1246.04,4021.47 3716.2,5452.58 2447.82,1416.81 8790.03,2890.83 19071.13,4379.15 10280.9,1502.72 17335.24,2805 21162.83,3921.34 5540.94,1645.76 9657.83,3720.9 12305.99,6253.95 2648.25,2518.74 3961.02,5423.97 3961.02,8715.57 0,3277.2 -1446.4,6339.87 -4361.52,9230.69 -2915.21,2890.83 -7076.48,5137.71 -12528.57,6740.56 -5452.08,1602.85 -11571.72,2404.32 -18403.48,2404.32 -8634.27,0 -15866.52,-815.78 -21696.86,-2432.93 -5852.77,-1617.15 -10414.53,-4050.07 -13730.23,-7312.98 -3338.14,-3248.7 -5073.83,-6926.69 -5251.94,-11033.97z"/>
  </g>
 </g>
</svg>
